<?xml version="1.0" encoding="utf-8"?>
<!-- Generator: Adobe Illustrator 26.2.1, SVG Export Plug-In . SVG Version: 6.00 Build 0)  -->
<svg version="1.1" id="Layer_1" xmlns="http://www.w3.org/2000/svg" xmlns:xlink="http://www.w3.org/1999/xlink" x="0px" y="0px"
	 viewBox="0 0 143 32" style="enable-background:new 0 0 143 32;" xml:space="preserve">
<style type="text/css">
	.st0{fill:none;}
	.st1{fill:#FFFDFE;}
	.st2{fill:#000053;}
	.st3{fill:#211E96;}
	.st4{fill:#2AC6FF;}
	.st5{fill:#FFFFFF;}
	.st6{font-family:'AquataDisplay-Bold';}
	.st7{font-size:12.881px;}
</style>
<path class="st0" d="M0,16"/>
<path class="st0" d="M0,16"/>
<g id="b">
	<g id="c">
		<path class="st1" d="M6.3,3.6h20.6c1.4,0,2.6,1.1,2.6,2.6v20.6c0,1.4-1.1,2.6-2.6,2.6H6.3c-1.4,0-2.6-1.1-2.6-2.6V6.2
			C3.7,4.8,4.9,3.6,6.3,3.6z"/>
		<g>
			<path class="st2" d="M19.7,26.4c-0.7,0-1.4-0.1-2-0.3c-3.4-0.9-5.8-4-5.8-7.6c0-2.2,0.9-4.2,2.4-5.6l0,0c0.9-0.9,2.1-1.4,3.5-1.4
				c1.3,0,2.6,0.5,3.5,1.4c-1-1-2.2-1.6-3.5-2c-2.6-0.7-5.5,0-7.6,2C7,16,7,21,10,24.1c1.9,1.9,4.6,3.1,7.6,3.1s5.6-1.2,7.6-3.1l0,0
				C23.8,25.5,21.8,26.4,19.7,26.4L19.7,26.4z"/>
			<path class="st3" d="M17.6,5.8c-5.9,0-10.7,4.8-10.7,10.7c0,3,1.2,5.6,3.1,7.6C7,21,7,16,10,13c2.1-2.1,5-2.7,7.6-2
				c1.3,0.3,2.5,1,3.5,2l0.1,0.1l0,0l1.6-1.6l2.4-2.4C23.3,7,20.6,5.8,17.6,5.8L17.6,5.8z"/>
			<path class="st4" d="M22.8,21.7L21.2,20c-0.9,0.9-2.2,1.5-3.5,1.5c-2.8,0-5-2.2-5-5c0-1.4,0.5-2.6,1.4-3.5
				c-1.4,1.4-2.2,3.4-2.2,5.5c0,3.6,2.5,6.7,5.8,7.6c0.6,0.2,1.3,0.3,2,0.3c2.2,0,4.1-0.9,5.6-2.3L22.8,21.7L22.8,21.7z"/>
		</g>
	</g>
</g>
<text transform="matrix(1 0 0 1 29.9582 19.705)" class="st5 st6 st7">Creative Duo LLC</text>
</svg>
