<?xml version="1.0" encoding="UTF-8"?><svg xmlns="http://www.w3.org/2000/svg" viewBox="0 0 305.17 305.17"><defs><style>.d{fill:#000053;}.e{fill:#fffdfe;}.f{fill:#211e96;}.g{fill:#2ac6ff;}</style></defs><g id="a"/><g id="b"><g id="c"><rect class="e" width="305.17" height="305.17" rx="30.45" ry="30.45"/><g><path class="d" d="M189.25,270c-8.31,0-16.36-1.09-24.03-3.13-39.94-10.6-69.37-47-69.37-90.27,0-26.15,10.75-49.78,28.06-66.73,.1-.1,.21-.2,.31-.3,10.67-10.17,25.11-16.41,41.01-16.41s30.31,6.23,40.97,16.38c-11.87-11.51-26.03-19.24-40.98-23.2-31.11-8.24-65.65-.17-90.04,24.23-36.47,36.47-36.47,95.61,0,132.08,23.05,23.05,54.89,37.3,90.06,37.3s67.01-14.26,90.06-37.3h0c-16.9,16.9-40.25,27.36-66.04,27.36Z"/><path class="f" d="M165.24,25.23c-70.34,0-127.36,57.02-127.36,127.36,0,35.17,14.26,67.01,37.3,90.06-36.47-36.47-36.47-95.61,0-132.08,24.4-24.4,58.93-32.47,90.04-24.23,14.96,3.96,29.12,11.7,40.98,23.2,.34,.33,.68,.66,1.02,.99l.04,.03,19.51-19.51,28.52-28.52c-23.05-23.05-54.89-37.3-90.06-37.3Z"/><path class="g" d="M226.77,214.12l-19.51-19.51c-10.76,10.76-25.61,17.41-42.03,17.41-32.82,0-59.43-26.61-59.43-59.43,0-16.08,6.39-30.66,16.76-41.35-16.51,16.85-26.7,39.92-26.7,65.37,0,43.27,29.43,79.67,69.37,90.27,7.67,2.04,15.72,3.13,24.03,3.13,25.79,0,49.14-10.45,66.04-27.36l-28.52-28.52Z"/></g></g></g></svg>