<?xml version="1.0" encoding="utf-8"?>
<!-- Generator: Adobe Illustrator 26.3.1, SVG Export Plug-In . SVG Version: 6.00 Build 0)  -->
<svg version="1.1" id="Layer_1" xmlns="http://www.w3.org/2000/svg" xmlns:xlink="http://www.w3.org/1999/xlink" x="0px" y="0px"
	 viewBox="0 0 2000 1200" style="enable-background:new 0 0 2000 1200;" xml:space="preserve">
<style type="text/css">
	.st0{opacity:0.42;fill:#60C5BA;}
	.st1{fill:none;stroke:#000000;stroke-width:3;stroke-linecap:round;stroke-linejoin:round;}
	.st2{font-family:'ArialMT';}
	.st3{font-size:29.3333px;}
	.st4{display:none;fill:none;stroke:#000000;stroke-linecap:round;stroke-linejoin:round;}
</style>
<circle class="st0" cx="380.9" cy="125" r="47.5"/>
<circle class="st0" cx="288.1" cy="573" r="47.5"/>
<circle class="st0" cx="401.2" cy="481" r="47.5"/>
<circle class="st0" cx="673.8" cy="1117" r="39.5"/>
<circle class="st0" cx="1280.5" cy="324.6" r="47.5"/>
<circle class="st0" cx="1684.5" cy="677.4" r="47.5"/>
<circle class="st0" cx="1520.6" cy="493.8" r="47.5"/>
<circle class="st0" cx="1636" cy="1011" r="47.5"/>
<circle class="st0" cx="991.1" cy="911.4" r="47.5"/>
<circle class="st0" cx="533.8" cy="734.4" r="47.5"/>
<g>
</g>
<path id="boundaries" class="st1" d="M1795,420.5l6-5.3 M1796,421l5-5.8 M925.8,1029l-3.6-10h-2.4l-1.2-8l-3.6-4l-0.8-7l-4.4-6.6
	l-7.2-5.6l-2-4.4l-3.6-0.8l-6-4.8l0.8-3.2l-4.8-4.8l-4.4-2.4l-2.8,2.4l-4.4-1.6l-8-2l-3.6,0.8l-9.2-4.4l-3.6,4.8l-3.2-1.2l-7.2,2
	l-2.8,5.2l-2,3.6l-2.4,6.4L820.6,999l-9.2-3.2l-5.2-6l-5.6-1.2l-3.2-3.6l-7.6-3.2l-6-4l-0.8-3.6l-4.8-2.4l-6-5.6l-0.4-4.4l-4.4-7.2
	l-0.8-6.4l1.6-5.2l-4.4-8.4l-1.6-1.6l-0.8-8l-2.8-2l-8-8.8l-6.4-2.8v-2l-4.8-4.4l-1.6-4.4l-5.6-3.6l-3.2-5.6l-4-5.2l-3.2-0.8
	l-4.8-3.6l-4.4-11.6l-5.2-2.8l-28-3.6l-32.4-3.6l-2.8,18.8l-30.4-3.6l-51.2-8l-22-2.8l-10.4-5.6L501,841.4l-36.8-20.8l-30.3-18.8
	L415.2,791l1.4-4.8l4.3-3.6l-50.4-6.4l-36.7-4.4v-6l-2.9-2l2.2-7.2l-0.8-10.8l-3.6-10l-2.8-3.6l-5.1-8l-4.3-3.6l-5-7.2H305l-4.3-4.4
	l2.1-2l-0.7-5.2l-3.6-4.8h-8.6l-4.4-3.2l-7.9-7.2l-0.7-4.8l-5.8-6.4l-2.8-2.4l-10.8-2.8l-3.6-2.8l-9.4-2.8l-6.5-0.8l-0.7-3.6
	l-3.6-3.6l2.9-5.2l1.4-11.6l1.5-6.4l-7.2-7.2l2.8-6.4l-4.3-3.6l-2.9-8.8l-2.8-2l-1.5-5.6l-2.9-5.2V589l-2.1-1.6l-2.9-8l-2.9-2.8
	l-1.4-11.6l2.1-6.4l4.4,0.8l2.1-8l-2.1-6.4h-5.1l-4.3-5.2l-0.7-3.6l-2.9-4.8l2.2-6.8l-0.8-6.4l-1.4-1.2l2.9-8l0.7-2.8l3.6-0.8
	l-0.7,4.8l-0.7,5.2l3.6,1.6l2.8,5.6l2.9,0.8l-2.1-2.4l0.7-7.2l-4.3-7.2l1.4-3.6l-2.2-4l5.8-2.4l-2.9-4.8l-3.6,0.4l-3.6,12.4
	l-5.7-5.2l-2.9-5.6l-2.9-2l0.7-6v-5.6l-2.1-8l-5.1-7.2l-3.6-10l-2.9-3.6l-1.4-6l2.9-3.6l-0.7-13.6l4.3-7.9l0.7-12.3l-2.9-8.6l-1.4-5
	l-2.2-2.2l-3.6-6.5l0.7-7.9l4.4-6.5l8.6-9.3l3.6-5.8L197,354l3.6-6.4l3.6-9.4l0.7-12.2l-2.2-2.2l4.4-8.6l-2.9-6.5v-5.8l1.4-7.9
	l2.9-5.8l0.7-3.6l-2.1-8.6l3.6-3.6l7.2-12.2l5-6.5l4.3-6.5l4.3-9.4l6.5-16.6l6.5-15.8l1.4-5.8l5.1-9.3l2.1-3.6l8.7-24.5l-0.7-2.2
	l5-11.5l3.6-2.9l9.4-1.4l-4.4-2.9l-5,0.7l-2.2-3.6l1.5-6.4l3.6-0.8l-0.7-9.3l-1.5-4.3l0.7-2.9l4.4-1.5v-4.3l-3.6-0.7l0.7-11.5
	l-1.5-5.8l1.5-5.8v-9.4l-2.9-7.2l-0.7-5l0.7-7.2l4.3-6.5l2.9-0.7l4.3,5l3.6,2.2l4.3,5l9.4,3.6l7.2,4.3l5,1.4l2.9-1.4l2.2,4.3
	l2.9,2.2l5-2.2l2.2,2.2l-1.5,10.1l-7.2,2.2l-2.9,5l-2.8,0.7l-2.2,2.9l4.3-2.9l5.1-0.7l3.6-5l5.7-2.9l-0.7,7.2l-2.9,9.3l-2.9,3.6
	l-2.8,6.5l-5.1-3.6v-2.9l-2.9,2.9l-0.7,4.3l3.6,4.3l6.5-5.7l4.3-0.7l2.9-2.2v-8.6l2.9-8l4.3-6.5l3.6-2.2l-2.9-4.3v-5.8v-0.7l1.5-2.2
	l-6.5-6.5l2.9-4.3l2.8,3.6l1.5-7.2l1.4-4.3l-5-4.3l-1.5-3.6l2.2-5l27.4,8.6l25.2,6.5l23.8,5.8 M410.9,60.2l32.5,8.6l17.2,4.3l21.6,5
	l10.8,2.2l27.2,5.8l37.6,7.9l18.8,3.6l29.2,5.7l23.2,4.4l26,4.3l15.2,2.1l35.2,5.1l35.2,5l30.4,3.6l30,3.6l30.4,2.9l28.8,2.9
	l31.6,2.1l26,2.2l15.2,0.7l37.2,2.2l18.8,0.7h15l31,0.7l20,0.7h23h31h5v-16.5l6,0.7l4,3.6l4,17.3l-1,4.3l4,2.2l4,0.7l6,2.1l12,0.8
	l1,5l9-1.4v-2.2l8-2.2h3h3l7,3.6l2,4.4l5-0.8l4,9.4l3-0.7l-1-4.3l4-0.8l5,1.5v2.1l5,2.9l4,3.6l8,2.2l5-2.2l6-4.3l4-2.9l4,6.5l11-0.7
	l8-1.5l2,1.5l5,3.6l4-1.5l4,0.8l-5,4.3l-6,3.6l-15,5.7l-6,3.6l-8,8l-12,14.4l-4,2.1l-5,6.5l-9,7.2l2,2.9l7,0.7l7-2.8l13-5.1l7-5
	l3,2.9l-3,5.7l-2,7.9l7-4.3l5,3.6l4,0.7l11-5.7l4-4.3l2-2.2l12-2.2l5-2.8l2-3.7l7-2.1v-2.9l11-9.4l2-3.6l7-4.3l11-1.4v3.6l-7,4.3
	l-4,5l-6,11.5l1,5.8l5-5.8h6h4l7,2.2l6,8l6,5.7l6-0.7l4-1.4l5,3.6h6l2-3.6l11-8.7l8-1.4l12-0.7l6-4.4l7-1.4v10.8l1,1.4l7,0.8l4-2.2
	l4,2.2l2-3.6l10-1.5l-1,4.3l1,10.1l8,7.9h-6h-2l-1,0.8l-6,1.4l-1-2.2l-6-0.7l-4,7.9l-6-5l-10-2.2l-6,0.8l-4,4.3l-6,1.4l-2,2.2
	l-7-0.7l-4,2.8l-1,5.1l-2,1.4l-3,0.7l-3,6.5l-2-2.1l5-8.7l-8,0.7l-1,5.8l-3,2.2l-3-1.5l-6,7.9l-5,12.3l-3,5.7v2.2v5l-4,1.5l-4,5.7
	l-2,6.5l-1,5.8l3,0.7l5-5l1-1.5l2-7.2l6-2.9l4-12.9l6-2.2v5.1l-2,1.4l-1,8.6l-3,3.6l-2,5.1l-2,7.9l-1,7.9l1,5.8l-4,3.6l-2,9.3l2,8.7
	l-2,6.5l-3,12.9l1,2.9l3,14.4l3,2.9l-1,5v7.2v8.7l3,5.7l3,3.6l3,9.3l3,6l6,2.8h4l9-5.2l3-2l6-6.6l3-10l4-5.8l2-7.9V398l-1-9.4l-2-5
	l-5-8.7l-2-6.5l-3-5.7l2-9.4l-4-9.3l4-5.8l3-7.9v-7.2l-1-7.9l4-3.6v-5.8l4-2.9h3l2-4.3l5-1.4v12.9l3,0.7l2-5l2-2.9V295l-2-4.3l1-2.9
	l4-4.3l3-0.7l-2-8l5-7.2l6-3.6l9,4.4l4-0.8l4,1.5l3,4.3h6l2,2.2l14,4.3l1,3.6l3,2.9l-4,5l2,4.3l3,2.2l3,6.5l-1,8.6l1,7.2l-5,3.6
	l-1,5l-3,8l-4,0.7l-2,3.6l-1,6.5l2,3.6l7,2.8l6-7.2l2-5l3-6.5l6-1.4l4-3.6l6,2.1l5,6.5l1,5.8l3,10.8l3,11.5l5,7.2l-2,2.9l1,6.5
	l-1,7.2l-4,2.1l-2-5l-3,2.9l-1,7.9v5l-5,2.2l-1,3.6v6.5l-2,2.1l-6,10.8v3.6l10,2.9l6,3.6l-1,2.8l4,0.8l7-2l7,2.8l4-2.8l3-0.8l7-4.4
	h2h7l7-7.9l5-6.5l9-5l14-8l5-3.6l17-12.9l9-7.9l2-4.4l6-3.6l2-5.7l4-4.3V362l-7-8.7l-2-7.2l13-7.2l4-1.4l15-2.2l7-0.7l6,2.9l6-2.2
	l8-2.1h5l7-5.1l3-3.6l5-5.7h3l3-3.6l-1-4.4l-3-5.7l3-5.1l-5-2.1l-4-3.6l1-4.3l3-5.1l8-6.5l2-5.7l11-16.6l9-7.9l4-2.9l3,0.7l20-5
	l21-5.8l4-0.7l19-4.3l19-5.1l12-3.6l1-10.1l2-3.6l5,1.5l1-2.9l3-2.9l5,2.2l-2-5.8l6-1.4l-3-2.9v-2.9l2-5.7l4-3.6l-2-2.9l3-4.3l1-2.9
	l-3-2.9l1-5.8l-2-1.4v-6.5l4-4.3l-1-7.2v-5l13-37.5h5l2,7.2l5,1.5l8-7.2l6-1.5v-3.6h3l9,3.6l6,3.6l15,46.1l3,10.8l6,1.4l6-0.7
	l-1,5.1l3,2.8v5.1l6,5V179h5l10,13l-5,8.6h-3l-2,3.6h-5l1,4.4l-9,2.8l-2,2.9v2.9l-2,3.6l-2-5l-6,1.4l5,4.3l-1,2.9l-5,1.4l-1-5.7
	l-5,2.9l1,5l-6-0.7l-2,1.5l-1-8.7l-1,2.9l-4,2.8l3,3.7l-1,3.6v7.2l-2,7.2l-6-0.7l-1,1.4l-1,5.8l-6,1.4v5l-5-0.7l-4,2.9h-3l-2,4.3
	l3,4.3l-5,2.9l1,3.6l-3,5.8l-2,12.2v0.7l-2,8.7l4,7.2l5,2.9l-7,4.3l-1,5l-2,6.5l1-0.7h1l3,0.7l2-0.7l2,0.7l6,5.8v4.3l5,1.4l2,4.3
	l6,2.2l4-1.4l6-3.6l3,3.6l-14,7.2l-1,2.8l-5,2.2l-1-7.9l-6,5.7l-1,3.6l-6,3.6l-7,1.5l3-7.9l-1-1.5h-5l-1-0.7l1,5l1,7.2l-1,5.1l-11,5
	l-4,0.7l-10,5.1l-1-1.5l-5,3.6l-12,2.2l-5,6.5l-3,0.7l-6,6.5l-7,4.3l-2,5v3.6l2,0.8v-4.4l4-2.8l4,1.4l1-4.3l6,0.7l5-3.6l13-4.3
	l6-6.5l5,1.4l2-1.4l3,2.2l4-4.4h3l-17,13.7l-21,14.4l-6,2.9l-4,1.4l-6,1.5l-5,1.9l-4-1.2V421l0,0 M1795,421l-4,3.6v0.7v2.2l-2,4.3
	l2,1.4h9l1,4.4v9.4l1,14.4l-2,10l-3,2.4l1,2.8l-3,4.4l-3,3.6l-3,5.6l-2,8.8l-4,4l-1-2.8l1-4.4l-1-3.6l-9-0.4l-10-5.2l-4-2l-2-6v-0.8
	l3-8.4h-1l-1,1.2l-3,8.8l2,5.2l3,4l3,1.6l3,5.2l1,5.6l4,3.6l5,5.2l4,0.4l4,14l-1,15.6l-1,3.6l-2,6.4h-3l-3,8v7.2l-1,5.2l-3,12
	l-4,4.4l-3-4.8v-14l2-7.6l2-3.2l2-8.4l-8,0.8l2-3.6l-4-5.2l2-2.8h-4l1-5.2l-4,7.2l-6-4.4l-2,0.8l-5-4.4l3-2.8l-2-3.6l4-1.2l5,1.2
	l-8-4.4l-4-0.4l1-3.6l3-1.6l-2-4.4l1-6.4l-4-1.6l1-7.6l2-3.2l4-0.4l-1-8l-3,1.2v4.4l-5,6.4l-3-2.8l1,2.4l-2,6.4l-3-0.8v1.6l4,2v7.2
	l1,1.6l-2,8.4l1,1.6l3,8l5,4.8l-2,2.8h2l4,7.2l-5,2.4l-4-3.6l-7-0.8l-3-3.6l-1,2.8l-5-5.6l-6,4.8l-3-4.8l3-7.2l-3-0.8l-1,7.2l2,6.4
	l1,0.8l8-3.6l1,4.4l1,2l5,1.6l8-0.8l3,4.4l11,3.6l-1,3.6v5.6l-2,2.8h-5l-4-5.6h-2l-9-6.4l10,8.4l2,0.8l4,5.2l6,2l5,2.4l-1,5.6
	l-4-2.8l-1,2l3,3.6l-4,2.4l4,2.8l4,1.2l1,4.4l-3,1.6l-9-4.4v-1.6h-5l-4-2l-2,1.6l9,2l1,2.8l7,3.6v1.6h4h2l1-3.6l4,0.8l6-0.8l8,15.2
	l5,12v0.8l-3-8l-3-2v10l-1,2.8l-5-2.8h-2l5,2.8l-3,4.4l-3-2l2,2l-6,3.6l-6,3.6l-4-0.8l-2-3.6V627v2v4.4l3,8l5-0.8l5-2.8l1,2l6-4
	l4-0.8l2,2.8v2.8l2,8l0,0v-9.2l3-5.2l5,3.6l2,7.2v5.6l-4-0.4l-6,11.2l-5,3.2l-5,0.4l-6-3.6l2-4.8l-5,2.8l3,5.2l-1,2l5,2.8l-1,7.2
	l-5,5.2l-2,2l-6-2.8l1,3.6l7,0.8l3-2.4l5-3.6l6,5.2l-3,5.2l-5,3.6l-9,1.2l-7,3.6l-6,7.2l-6,6l-6,7.2l-2,6.4l-3,10.8l-1,2h-4l-10,1.6
	l-5,3.6l-9,6.4l-4,8l-3,4.4l-2,7.6v6.8l-3,2.8l-1,4.8l-7,0.8v5.2l-5,4.8l-5,3.2v2.8l-2,4.4l-5,1.2l-4,2.8l-3,3.2l-5,0.4l3,3.6
	l-1,3.2l-7,6.4l-2,2.8l-5,3.6v2v6l-7,8.4l-1,0.8l3,3.6l-2,2.8l1,2.4l-4,6.4l1,3.6l1,2.8l-4,5.2l-1,4.4l2,4.8v8l2,8.8l4,10.8l8,19.2
	l2,4.4l6,9.2l6,10.8l12,14l7,7.6l3,5.2l-3,2.8v4.4l3,8.4l7,9l6,12l7,12l7,11l3,7v8l1,13l1,14l1,9l-4,3l-2,11l2,3l-2,4v1l-1,1l5-5
	l-3,11l-5-4l-3,1l-5,3h-6l-1,2l-7,2l-4-4v-5l-2-5l-5-6l-1-3l-8-3l-6-3l-3,2l-6-9l-2-10l-8-7l-5-1l1-10v-4l-3-3l-2,2l2,5l-2,2l-3-1
	l-5-6l-7-11l-6-6l-3-4l2-2l3-6l5-8l-1-3l-4,2l-2-4l-4-2l1,5l3,2l-1,6l-4,1l-6-7l2-5l-2-7l2-3l2-9v-4.8l-1-6.8l-4-4.8l1-3.6l-3-3.6
	l-3-6.4l-7,0.4l-6-4l-3-5.2l-7-3.6l-2-6.4h-2l-5-3.6l-4-6l-9-3.6l-4-1.2h-2l-7,0.8l-6,5.6l-4,2.8l-11,9.6l-10,1.2l-3,2.4l-3,0.4
	v-4.8l-4-5.2l-5-1.2l-3-3.6l-16-7.2l-8-2.4l-8-1.2h-8l-6,1.2l-5,0.8l-9,2.8l-5,0.8l-7,2.8l-6,1.6l-3-1.6l-7-4.4l-1-10l-3-1.2l-3,4.8
	v8l-3,1.6l-6-1.6l-2,1.6l-1,2l-8-0.8l-3,0.8l-5-2.8l-14,5.6l-3-2v2.8l-7,5.6l-3,1.6l-4,3.6l-4,2.8v2.8l6,2.4h4v-5.2l3-2l3,2.8l4,1.6
	l-6,12.8l-1-0.8h-1l-4,1.6v3.6l8,5.6l10,1.6l8,6.4l-2,4.4l-10,2l-6-6.4l-6-2.8l-6-1.6l1-2.8l-8-2l-2,3.6v0.4v0.8l-3,3.6l2,2.4l-1,2
	l-5,3.6l-3-8l-4,0.8l-5-1.6l-4,6l-8,5l-4-5l-3,0.8l-9-3.2l2-7.6h-1l-3-2.4l-5,1.6l-7-11.6l-8,0.8V969h-5l-5,4.4l-3,0.8l3,5.6l-8,2.8
	l-10-2l-13-5.2l-8-2l-12,0.8l-9,1.2l-4,2.4l-10,1.2l-9,4.4h-1h-4h-2l-8,2l2-4.8v-5.2h-4l-5,3.6l-3,5.2l5,4.8v6l-6,4l-4,1l1,5l-9,9
	l-5,2l-10,5l-12,6l-12,7l-2,3l-4,2l-12,9l1-2l1-3l5-1l4-4l5-2v-3l-9,4l-1-4l-3-1l-3,1l3,4v2v2l-5,4l-3-3l-8,5l6,3l-3,5h-1l-11,1
	l-2,1h4l2,5l3,1l-3,6l-3,10l-4-2l-3,4h-5l7,2l4-1l-1,17l-1,2l2,9l3,8l2,6l-1,2l2,6l4,2l-3,3l-5,3v3l-6-3l-5-5l-8-2h-7l-8-1l-8.8-7
	l-4.4-1l-2.8,1l-6.4-6h-3.2l-7.2-2v-3l-2.8-5l-3.6-11l-6.4-8l0.8-7l-0.8-3l-2-4l1.2-5l-0.8-4l-3.6-4l-4-1l-6-6l-0.8-3l-3.6-5l-2.8-7
	l-4.8-2l-3.2-4l-1.2-6 M330.9,53.8l-2.9,1.4l-5.7-2.9l4.3-2.2L330.9,53.8 M322.3,56.6l-4.4,0.7l-0.7-5h2.9L322.3,56.6 M333.8,81.8
	v3.6l-6.5-4.3l1.4-5.8l-3.6-4.3l5.1-1.4l-0.7,10.8L333.8,81.8 M1294,185.5l-5,4.3l-2-2.1l2-2.9l8-4.3l9-7.2v3.6l-3,3.6L1294,185.5
	 M1464,251.1l-8,2.9l-4-1.5l6-4.3l1-2.2L1464,251.1 M1914,366.3l-3,0.7l-4-0.7l4-1.5l2-3.6l3,2.9L1914,366.3 M1900,365.6l-12,3.6
	l2-0.8l3-7.2L1900,365.6 M1794,428.2l-4,2.9l1-2.2v-2.1v-1.5l3-1.5V428.2 M1798,661.4v2.4h-2l-5,2.8l2-1.6l3-2.8L1798,661.4
	 M248.1,689l-4.3,0.8l-2.9-6l5.8,0.8L248.1,689 M258.2,686.2v4l-5.1-2l-0.7-3.6L258.2,686.2 M287,738.6l6.5,10l-4.4-1.2L287,738.6
	 M320.1,893.4l0.7,5.6l3.6-4l4.3,5.6l6.5-2.8l2.9,2l0.7,2.8l2.2,3.2l12.2-3.2l9.4,4.4l10.1-0.8l4.3,3.2l7.9-5.2l14.4,5.6L426,1045
	l9.4,2l4.4-3l0.4,3l14.4,10l0.8,4l6-6l0.4-5l5.2-4h5.2l1.2,1v4l14.4,8l16,16l5.6,6l9.6,1l10,4l-0.8,3l3.6,6l-2.8,12l-4.4-6l-3.6,2
	l-5.2-4l-2.8-1l1.6,3l4.4,8l-5.2,2l-1.6,2l-11.2-7l-0.8-8l-2.8-5l-1.6,6h-3.6v-7l-2-2l-0.8,4l-5.2-3l-15.6-16l-3.6-5l-28.4-13l1.6-3
	l0.8-3h-3.6l-2.2,4l-9.4-1l-12.2-1l-10.1,6l2.2-5l-13.7-2l-4.3-6l-9.4-2l-5,1l0.7,5l5.7,4l-1.4,4l-3.6,3h-6.5l-8.7,8l-8.6,5l-4.3-1
	l8.6-8l-5,1l-2.9-3l4.3-6v-7l6.5-5l2.9,2l5.1-1l-7.3-4h-3.6l-6.5,5l-5,10h-2.2v4l-2.8,2l-0.8,2l-2.1,3l-2.9,2l-0.7,5l4.3,3l-3.6,6
	l-2.9,5l-5.7,2l-2.2,5h-2.9l-2.9,3h-2.8l-1.5,6l-4.3,4l-3.6-1l-1.4,3l-5.1,2l-2.1,4l-3.6,4l-4.4,2h-5.7l-3.6,1l-0.7,3h-5.1h-2.1
	l-2.2-3l-2.2,3l-2.8,4h-4.4l-4.3,3l-3.6,2l-5.7,1l-8.7,1l-0.7-3l4.3-5l10.8-1l5.1-1l9.3-9h7.2h2.2l2.1-2l5.8-6l8.6-3h2.9l2.9-7l5-4
	h0.8l1.4-12l5-8l-9.3,4l-3.6-5l-2.2,7l-4.3-7l-3.6,2l-2.9-5l-5,2l-3.6,3l-2.9,3l-2.9-3l2.2-4l-0.7-6l3.6-3l-3.6-10l-6.5,4l-7.2-1
	l-5.8-8l-1.4-5l2.1-5l-1.4-1l-2.2-3l-0.7-4l-2.1-3l2.8-2l2.2-5l6.5-5l2.9-8l2.8-2l5.1,2l1.4,2l5.8-4h7.2l5-4l-0.7-8l-3.6-2.4l5-3.6
	l-0.7-4l-4.3,0.4l-4.3,3.2l-3.6,4.8l-1.5-4.4l-5-0.4h-7.9l-7.9-4.4l-1.5-6.4l3.6-3.6l-10.1-6l18.8-8.4l8.6-1.6v6.4l11.5,4.4l3.6-5.2
	l-1.4-6.4l2.9-3.6l-14.4-2.8l-0.8-8.8l-12.2-12.8l2.9-1.6l0.7-5.6h13l11.5-16.4l5.7-0.8l9.4-6.4h6.5l7.9-8L320.1,893.4 M1251,980.6
	l-6,3.6l-6-3.6l4-2.8L1251,980.6 M212.1,989l5,3.6l5.1-0.4l1.4,5.6l7.2,3.2l-8.6,3l-3.6-6.2l-7.2-2.8L212.1,989 M1135,995.8l-12,8.2
	l9-8.2H1135 M591.4,1026h-10.8l-5.6-6l0.8-4l7.2-5h8l4.8,5L591.4,1026 M564.2,1026l-4.4,4l-2.8-1l0.8-4l4.8-5l3.2,1L564.2,1026
	 M197.7,1038l-3.6,1l-3.6-4l1.4-3l3.6,3L197.7,1038 M662.2,1050l-0.8,3h-7.2l-5.6-3l-7.2,3l-5.2-14l6.4-2l4.4-4l6.4,6v6l3.6,2
	L662.2,1050 M243.1,1055l-5.1,2l-7.2-9l10.1-2l2.2,4V1055 M689,1054l1.2,3l9.6,1l-6,5l-19.6-2l3.6-6l9.6,1L689,1054 M1037,1095l3,15
	h-1l-3-11l1-18l1-3l4-10l3-3l2-8l2,1l-6,10l-5,13L1037,1095 M703.8,1062l6,6l9.2-2l10,6v4l-3.6,4l-13.6,3l-2-9l-3.6-1l-6-3v-6
	L703.8,1062 M694.6,1075l-5.2,1l-4.8-8l3.6-2l8,5L694.6,1075 M709,1086h-10.8l8-7L709,1086 M345.3,1099l-5,5l-2.9,3h-2.2l-1.4-2v4
	l-2.9,2v3l-2.9,1l-2.9-1l2.2-4l-3.6-10l5-3l3.6,2l4.4-5l-0.8-5l5.8-7l5,4v3H341l-0.7,2l2.8,4L345.3,1099 M45.1,1098h-4.3l-5-4l2.2-3
	l4.3,2L45.1,1098 M766.6,1115v4h3.6l0.8,4l6.4,4l-10,10l-5.2,2l-4.8-1l-8,5l-7.2,11l-8.8-8l-2-20l-3.6-8l8-9l-3.2-10l2.4-4l27.2,14
	L766.6,1115 M45.8,1105l-2.2,2l-2.2-3l5-4l1.4,2L45.8,1105 M73.1,1129h-3.6l-1.4-3l3.6-2l2.2,1v2L73.1,1129 M91.9,1134l-0.7,3
	l-4.3-3l2.2-1l2.2-1L91.9,1134 M84.7,1139l0.7,3l-2.2-1l-3.6-6h2.2L84.7,1139 M233.7,1140l0.7,2l-1.4,2l-5.8-1l-3.6-1l-1.4,1v3
	l-2.2,2l-2.9,2l-4.3,1h-5h-2.9l-2.9,2l-6.5,1l-2.1,1l-2.9-1l6.5-6l5.7-4l2.9,1l3.6,2h2.9l0.7-2v-3l2.2-2h2.1l1.5,1h3.6l1.4-1l0.7-3
	h2.2h2.9l2.1,3H233.7 M119.2,1145l5.1,2h2.8h2.9v4l-3.6,1h-7.2l-4.3-1l-6.5-4v-5l5.1,2L119.2,1145 M1656,1154l-5,1l1-4l12-9l3,1l3,4
	l-8,4L1656,1154 M155.2,1156l-2.9,1l-5-3l-5-1l-7.2-1l-0.8-2l8-2l2.8-1h3.6v4l2.9,1l4.3,1L155.2,1156 M188.3,1151l-1.4,3h-2.2
	l-3.6-1l2.2-3l4.3-3l1.5,3L188.3,1151 M179.7,1154h-2.2l-0.7-3h1.5l2.1,2L179.7,1154 M163.1,1154l-1.4,1h-3.6l0.7-3l1.5-1l2.8,2
	V1154 M173.9,1154l-1.4,1h-1.4l0.7-3l3.6,1L173.9,1154 M468.6,206.4L468.6,206.4v-0.7v-1.5v-1.4l0.4-2.9v-2.1v-2.9V192v-2.9v-2.9
	l0.8-2.8l0.8-2.2l0.8-2.9v-3.6l0.8-2.9l0.4-2.8l0.8-2.9l0.8-3.6l0.8-2.9l0.8-2.9l0.4-2.1l0.8-2.9l0.8-2.9v-2.2l0.8-2.8l0.8-3.6
	l0.4-2.9l0.8-3.6l0.8-2.9l0.8-2.9l0.8-3.6l0.4-2.9l0.8-2.8l0.8-2.9l0.8-2.9l0.8-3.6l2.8-11.5l0.8-3.6l0.4-2.9l0.8-2.9l0.8-2.9
	l0.8-2.2v-2.2v-0.7l0,0 M520.2,86.2l-0.8,6.5l-1.2,4.3l-0.8,4.3l-0.8,3.6l-0.8,4.3l-0.4,4.3l-1.6,3.6l-0.8,4.3v5.1v3.6l1.6,4.3
	l1.2,3.6l1.6,3.6l0.8,3.6v3.6v3.6v2.2l0.8,2.1l1.2,2.2l2.4,2.1l2,2.2l2,2.9l1.6,2.9l1.6,3.6l1.2,2.8l1.6,2.9l1.2,2.9l2.4,3.6l2,2.9
	l2.8,2.9l3.2,2.1l2,2.2l1.6,2.9l-0.8,2.8l-1.6,3.6l-1.2,3.6l-1.6,3.6l-1.6,2.9l-0.4,2.9v2.9l-0.8,3.6l-0.8,2.9l-1.6,2.9l-1.2,3.6
	l-0.8,2.9l-1.6,2.1v0.7v0.8l0,0 M860.2,137.3l-0.8,9.3v1.5l-0.8,2.1v1.5v1.4v2.2v1.4l-0.4,2.2v1.4v1.5v2.1v1.5l-0.8,1.4v2.2v5v1.4
	l-0.8,1.5v2.1v1.5v1.4v2.2l-0.8,1.4l-0.8,13.7v1.4l-0.4,2.2v1.4v1.5v0.7v0.7v0.7l0,0 M279.1,145.2h0.7l0,0h0.7v0.7h0.7l0.7,1.5v0.7
	l0.8,0.7v1.4l0.7,0.8h0.7l0.7,0.7h1.5h0.7h1.4h0.7l1.5,0.7h0.7l0.7,0.7l0.7,0.7l0.8,1.5l0.7,0.7l0.7,0.7v0.7l0.7,1.5l0.7,0.7v1.4
	v0.8v1.4v0.7v1.5v0.7v0.7v1.4v0.8v1.4l-0.7,0.7v1.5v0.7v0.7v1.4l0.7,0.8v1.4l0.8,1.4 M1073,274.1v-2.9v-2.8v-2.9l-1-2.9l-1-2.9
	l-1-2.9l-1-2.1l-2-2.9v-2.2v-2.1v-2.2v-2.9v-2.8l-1-3.6v-2.9l-1-2.9v-3.6v-2.9v-2.9v-2.9V215v-2.8v-2.9v-2.2l-1-2.9l-1-2.8v-2.2
	l-2-2.9l-1-2.9v-2.8l-1-2.2l-1-2.9l-1-2.1v-2.2V179v-2.8V174v-2.9v-2.9v-2.1v-2.2v-2.1v-2.9V156v-2.9l-1-2.1l-1-4.4 M297.1,179
	l0.7,0.8l2.1,0.7l2.9,1.4l3.6,1.5l3.6,1.4h3.6l2.9-0.7l3.6-0.7h2.9h2.9l3.6,0.7l2.8,0.7l2.9,1.4l2.9,1.5l3.6,1.4l4.3,1.5l4.3,0.7
	h4.4l4.3,0.7l4.3,0.7l3.6,0.7h4.4l3.6-0.7h3.6h3.6l3.6-0.7h2.8h4.4l3.6,0.7h4.3h5h4.3l4.4,0.7l3.6,0.8l4.3,1.4l4.3,0.7l3.6,0.7
	l3.6,0.8l2.7,0.7l3.2,0.7l3.6,1.4l3.6,0.8l3.6,0.7l3.6,0.7l4,0.7l3.6,1.5l3.2,0.7l3.6,0.7 M1873,296.4L1873,296.4h-1l-1-0.7l-1-0.7
	l-2-1.4l-1-2.2l-2-1.4l-1-1.5l-1-1.4l-1-1.5l-2-2.1V282l-1-2.1v-2.2l-1-2.1l-1-2.2v-2.2l-1-2.1l-1-2.2v-2.1l-1-2.2l-1-2.2l-1-4.3
	l-1-2.1l-1-2.2l-1-2.9v-2.1l-1-2.2v-2.2l-1-2.1v-2.2l-1-2.1l-1-2.2v-2.2l-1-2.1l-2-2.9l-1-2.2l-2-7.2l-3-10.8 M427.4,373.5l5.1-23.8
	l1.4-4.3l0.7-4.3l1.6-4.3l0.4-4.4l0.8-4.3l1.6-5l0.8-4.3l1.2-4.4l0.8-5l0.8-4.3l1.2-3.6l0.8-3.6l1.6-2.9l1.2-2.9l1.6-2.9l0.8-3.6
	L449,282l-1.6-2.8l-1.2-2.9l-0.8-3.6v-2.9l1.6-2.9l2-3.6l2.8-2.9l2.4-2.8l2.8-2.2l2-2.9l2.4-2.1l1.2-3.6l2.4-2.9l2-3.6l2-3.6
	l2.4-2.9l2-3.6l2.4-3.6l0.4-3.6l-0.4-2.9l-1.6-3.6l-2-2.9l-1.6-2.2l-1.6-2.8l-0.4-1.5v-0.7l0,0 M854.6,207.8l-2.4,24.6v1.4l-0.8,1.4
	v1.5v1.4v1.5v1.4v1.4l-0.4,1.5v1.4v0.7v1.5v1.4v1.5l-0.8,1.4v1.4v1.5v1.4v1.5l-0.8,9.3 M1816,287.8L1816,287.8L1816,287.8
	L1816,287.8l1-0.7v-0.7v-1.5l1-2.1v-1.5l1-1.4v-2.2l1-1.4v-2.2v-1.4v-2.2l1-1.4v-2.2v-1.4V264l-1-2.1v-1.5l-1-1.4v-1.4v-1.5l1-1.4
	l1-1.5l1-0.7l1-0.7l1-0.7l1-1.5l2-1.4v-0.7l1-1.5l1-1.4v-1.4l1-1.5v-1.4l-1-1.5v-1.4l-1-1.4l-1-1.5v-1.4v-1.5v-1.4V228l1-1.4v-1.5
	l-1-1.4V223v-0.8v-0.7 M1773,235.2v6.5v0.7l0,0l0,0l0,0v0.8h1l0,0l1,0.7 M533.8,239.6L533.8,239.6h0.8l1.6,1.4l2,0.7h2.8h3.6
	l3.2-1.4l3.6-0.7h2l1.6,2.1l0.4,2.9l0.8,3.6v3.6l0.8,2.9l0.8,3.6l1.2,3.6l1.6,2.9l0.8,3.6l0.8,3.6l1.2,2.8l2.4,2.9l2,2.2l1.6,3.6
	l1.2,2.9l0.8,3.6l0.8,2.8l1.2,2.2l1.6,1.4h2h2.4l2.8-0.7l2.8,0.7h2.8h3.2l2-0.7h2.8h2.4l2.8,0.7h3.6l2,0.8l2.8,0.7h3.2l2-0.7
	l2.8-1.5l1.6-1.4l2-1.5l2.4,0.8l2,1.4l1.6,2.9l1.2,2.1l0.8,2.2l0.8,0.7l0.8,0.7l0,0l0,0 M1208,241.7L1208,241.7L1208,241.7h-1
	l-1,0.7l-2,0.8l-2,1.4l-1,2.2v2.8v3.6v3.6v3.6v3.6l-1,2.9l-1,3.6l-2,2.2l-4,2.1l-2,2.2l-2,2.9l-3,3.6v2.9v3.6l2,2.8l1,2.9l1,2.9
	l-1,3.6v3.6v4.3l-1,5.1l1,4.3v4.3l1,3.6l3,2.9l4,2.1l3,2.2l4,2.9l4,2.1l3,2.2l4,2.9l2,2.9l2,2.8l3,2.2l4,2.9l3,2.1l3,2.2l2,3.6
	l2,3.6l1,4.3v3.6l1,2.2l1,1.4l0,0l0,0 M1775,243.9v2.1v1.5v1.4v2.2l1,2.1l1,1.5l1,1.4l1,2.2l1,2.1v2.9v2.2v2.1v1.5v2.1v2.2v2.2v2.1
	l1,1.5l1,2.1l1,2.2v1.4l1,2.2v2.1l1,1.5v1.4v0.7l2,0.8l1,1.4l2,1.4l1,1.5v2.1l1,2.2l1,2.9v2.1v2.2v2.2l1,2.1l1,2.2v2.1v2.2l1,2.2
	v2.1l1,2.2l1,1.4v1.5 M1345,302.2L1345,302.2L1345,302.2l-2-1.4v-1.5l-1-1.4l-1-2.2v-2.1v-0.8l-2-0.7l-2-0.7V290v-2.2v-2.2v-2.8
	l-1-2.9l-1-2.2l-2-1.4l-3-2.2l-2-1.4l-1-2.2l-2-1.4l-3-1.5l-3-0.7l-3-0.7l-3-0.7h-3h-2l-3-0.7l-2-0.8l-3-0.7l-2-1.4l-3-0.7l-4-0.8
	l-2-0.7l-3-0.7l-4-0.7l-3-0.7l-3-0.8h-3l-3-0.7l-3-1.4l-2-1.5l-2-1.4l-1-2.2l-2-1.4l-2-1.4l-1-0.8h-1l0,0 M1073,277.7h-4h-4h-5
	l-5-0.7h-5h-5h-6h-4h-5h-3h-6l-4-0.7h-6h-5h-4l-5-0.7h-5.2H987h-6l-4.8-0.8h-4.4h-5.2l-4-0.7H959h-4.4H951l-5.2-0.7H941l-6-0.7h-4.8
	l-6-0.7h-4.8h-5.2l-3.6-0.8h-4.4h-4.8l-5.2-0.7l-5.2-0.7h-4.8h-4.4l-4.4-0.7h-4.8l-5.2-0.7l-5.2-0.8h-4.8l-8-0.7 M849.4,266.9
	L849.4,266.9v0.7v0.8l-0.8,0.7v1.4v0.7v0.8v1.4l-1.2,21.6v0.7l-0.8,0.7v1.5v0.7v1.4v0.8v1.4l-1.6,5 M1073,277.7v-3.6 M1076,367v-5.8
	v-2.8v-2.2v-2.9v-2.1v-2.9v-2.2v-2.9v-2.1v-2.2v-2.1v-2.2v-2.2v-2.8v-2.2v-2.9v-2.1v-2.2v-2.9v-2.1v-2.9v-2.2v-2.9l-1-2.1l-1-1.5
	l-1-1.4l-2-1.4l-2-2.2l-2-1.4V295l-1-1.4v-2.2v-2.2l1-1.4l2-1.4l2-1.5l1-2.1l1-1.5v-2.1v-0.8v-0.7l0,0 M845,307.2h-4.4l-4.8-0.7
	l-5.2-0.7H825l-5.2-0.7l-4.8-0.7h-4.4l-5.2-0.8l-4.8-0.7h-6l-6.4-0.7l-5.6-0.7l-6-0.7l-4.8-0.8h-6l-4.4-0.7l-4.8-0.7l-5.2-0.7
	l-4.8-0.7l-5.2-0.8l-5.2-0.7l-4.8-0.7h-5.2l-4.8-0.7l-6-0.7l-4.8-0.8l-6-0.7l-6.4-1.4l-5.6-0.7l-6-0.8l-5.6-0.7l-6-0.7l-5.6-0.7
	l-6-0.7l-4.8-0.8l-6-0.7l-4.8-0.7l-5.2-0.7h-4.4l-2.8,2.1l-2,3.6l-0.8,3.6l-0.8,4.4l-0.8,3.6v1.4l-0.4,1.4l0,0 M1823,324.5l-2-2.1
	l-1-0.8l-1-0.7v-0.7v-0.7v-0.7v-1.5v-0.7v-0.7l1-1.5v-0.7V313v-0.7v-1.5l-1-0.7v-0.7v-0.7v-1.5v-0.7v-0.7v-0.7v-0.7v-0.8l-1-1.4
	v-0.7v-0.7V300l-2-12.2 M630.6,303.6l-1.6,12.3l-0.8,2.1v2.9l-0.8,2.2v2.9l-0.4,2.8l-0.8,2.2v2.9l-0.8,2.1v2.9l-0.8,2.9v2.2
	l-0.8,2.8v2.2l-0.4,2.9l-0.8,2.9v2.1l-0.8,2.9v2.2l-0.8,2.8v2.2l-0.8,2.9l-0.4,2.9v2.1l-0.8,2.9v2.9l-0.8,2.9l-0.8,2.1v2.9l-0.8,2.2
	v2.8l-0.4,2.2l-1.6,9.4l-0.8,4.3 M1823,324.5L1823,324.5l2-0.7h2l1-0.7h1h1l1-0.7h2l1-0.8h2h1l1-0.7h1l2-0.7h1h1l2-0.7l7-1.5l2-0.7
	h1l2-0.7l0,0l1-0.7l1-0.7v-0.8l1-0.7v-1.4l1-0.7l1-0.8l1-1.4l1-0.7l1-0.7l1-0.8l1-0.7l1-0.7h1l1-0.7l0,0h1 M837.8,392.9l1.6-12.9
	v-2.2v-2.2l0.8-1.4V372v-2.1v-1.5l0.4-2.1v-2.2V362v-2.2l0.8-2.2v-2.1v-2.2v-2.1l0.8-2.2v-1.4v-2.2v-2.2l0.8-2.1v-1.5v-2.1v-2.2
	v-2.1l0.8-2.2v-2.2v-2.1v-2.2l0.4-2.1v-1.5v-2.1l0.8-11.6 M207.1,315.2l2.1,0.7l2.2,0.7l2.9,0.7l2.8,0.7l2.9,1.5l2.9,0.7l3.6,0.7
	l2.9,0.7l2.9,0.8l2.8,0.7l2.9,1.4l3.6,0.7l2.9,0.8l3.6,0.7l6.5,2.1l2.9,0.8l2.8,0.7l3.6,1.4l2.9,0.7l3.6,0.8l2.9,1.4l3.6,0.7
	l2.9,0.7l3.6,1.5l2.9,0.7l2.8,0.7l3.6,0.7l2.9,1.5l2.9,0.7l2.9,0.7l2.9,0.7l2.8,0.8l2.9,0.7l2.9,0.7l2.9,0.7l2.9,0.7l9.3,2.9
	l7.2,1.5 M1798,329.6l5-0.8l1-0.7h1l0,0l0,0h1h1l1-0.7l0,0h1l0,0h1h1l10-2.2l1-0.7h1 M1798,360.5L1798,360.5L1798,360.5L1798,360.5
	L1798,360.5v-0.7l0,0v-0.7v-0.7v-1.5v-0.7v-13v-0.7v-0.7v-1.4v-0.8v-0.7v-0.7v-0.7v-7.9 M1868,354.8l-2-2.2l-1-0.7v-0.7l0,0v-0.8
	v-0.7l0,0V349l-1-0.7v-0.7l0,0l-1-0.8l0,0l0,0h-1h-1l0,0h-1h-1l0,0l0,0h-1l-6,2.2h-1 M1851,349l2,9.4l1,0.7v0.7v0.7v0.7l1,0.8v0.7
	v0.7v0.7v0.7v0.8v0.7v0.7l1,0.7v0.7v0.8l1,2.1v0.7v0.8v0.7v0.7v0.7v0.7v0.8l-1,2.1 M1798,360.5l8-1.4l2-0.7h1h1l1-0.8h2l0,0l2-0.7h1
	l2-0.7l6-1.4h1l2-0.8h1l1-0.7h2l0,0l2-0.7l3-0.7h1h1l1-0.7h2v-0.8h2h2h1l5-1.4 M335.2,351.2l10.1,2.8l2.2,0.8h2.1l2.2,0.7l2.1,0.7
	l2.2,0.7h1.4l2.2,0.7l2.2,0.8h2.2l4.3,1.4l2.1,0.7h2.2l2.2,0.7l2.1,0.8l2.2,0.7h2.1l2.2,0.7l2.2,0.7h2.1l2.2,0.7l2.1,0.8l2.2,0.7
	h2.9l2.1,0.7l20.2,4.3l7.2,2.2h0.7 M335.2,351.2l-5.7,23.7l-0.8,2.9l-0.7,2.9l-0.7,2.9l-0.7,3.6l-0.7,2.8l-1.5,3.6l-0.7,2.9
	l-1.4,6.5l-0.8,2.9l-0.7,3.6l-0.7,2.9l-0.7,3.6l-1.5,2.8l-0.7,3.6l-0.7,2.9l-2.9,10.1l-0.7,2.9l-0.7,3.5l-0.7,3.2l-0.8,2.8l-0.7,3.6
	l-0.7,2.8l-0.7,2.8l-0.7,2.8l-1.5,2.4l-0.7,2.8l-0.7,2.8v2.8l-0.7,2.4v2.8v1.6l0.7,2v0.8h0.7v0.8 M1872,356.9l-4-1.4v-0.7
	 M1803,406.6v-1.4l-1-0.8l-1-0.7V403v-1.4l1-0.8l1-0.7v-1.4l2-0.7v-0.8l1-0.7v-1.4l-1-0.7v-1.5v-0.7l-1-0.7V390l-1-0.7v-1.4v-0.7
	v-1.5v-1.4l-1-0.7v-1.5v-0.7V380l-1-1.5v-0.7v-1.4v-1.5v-1.4v-0.7l-2-8l-1-4.3 M1076,382.1V367 M520.2,392.9h-0.8h-1.2l-2.4-0.7
	l-2-0.7h-2l-2.4-0.7l-2.8-0.8h-2l-7.2-1.4l-2.4-0.7h-2l-2.8-0.7l-2.4-0.8l-2-0.7h-2.4l-2.8-0.7l-9.2-2.2H469l-2-0.7l-2-0.7h-3.2
	l-2-0.7l-2-0.7h-2.4l-18-4.4l-2-0.7h-2.2l-2.2-0.7h-1.4l-1.5-0.7h-0.7l0,0l0,0l0,0 M1754,390.8L1754,390.8V390l-1-1.4l-2-2.9l-1-2.1
	l-3-2.2l-3-2.2l-3-1.4h-2h-4l-4,0.7l-4,0.7l-4,0.8l-3,0.7l-3,0.7l-4,0.7l-3,0.7l-5,0.8l-3,0.7l-4,0.7l-3,0.7l-4,0.7l-3,0.8l-3,0.7
	l-4,0.7l-4,0.7l-4,0.7l-4,0.8l-4,1.4l-4,0.7h-4l-3,0.7l-3,0.8l-4,0.7l-4,0.7l-4,0.7l-3,0.7l-5,0.8l-3,0.7l-5,0.7l-4,0.7l-4,0.7
	l-4,0.8h-4l-2-1.5l-2-2.9l-1-2.8v-1.5v-1.4 M1239,378.5l1,3.6 M1076,382.1h1h2h4h3h4h3h4h4h3h4h3h4h3h3h4h4h3h4h3h4l4-0.7h4h4h3h4h3
	h4h4h3l4-0.7h2h3h4h3h4l3-0.7h4h4h3h4l3-0.8h4h4h4l4-0.7h2h2h2 M1240,382.1L1240,382.1v0.7v0.8v0.7v0.7l1,1.4l1,0.8l1,0.7v0.7v0.7
	v1.5v0.7l-1,1.4l-1,0.7v1.5v0.7v1.4v1.5l1,1.4v0.7l1,1.5v1.4v0.7l1,2.9l1,0.7v1.5v0.7l1,0.7l1,0.7l1,0.8l1,0.7h2v0.7h2v0.7h2v0.7h1
	l1,1.5l1,0.7v1.4l1,1.5 M1076,426v-0.7h-1v-1.4v-0.7v-0.8l-1-1.4v-0.7l-1-0.7v-1.5l-1-0.7l-1-0.7v-1.5v-0.7v-1.4v-0.7l1-1.5l1-1.4
	V408v-0.7v-1.4l1-1.5v-0.7v-1.4l1-0.7v-1.5v-0.7v-0.7v-1.5v-1.4v-0.7l-1-1.5v-0.7l-1-0.7v-1.4V390v-1.4v-1.4v-0.8V385v-0.7v-1.5l0,0
	v-0.7h1h1h1 M1767,398.7l-1-1.5l0,0l-1-0.7l0,0l0,0l0,0h-1l0,0h-2l0,0l0,0h-1l0,0l-1-0.7l0,0h-1l-4-3.6l-1-1.4 M613.8,409.5
	l-0.8-0.7l-4.8-0.8h-2.8l-2.4-0.7h-2l-2.8-0.7h-2.4l-2-0.7h-2.4l-2.8-0.7h-2l-2.4-0.8l-2-0.7h-2l-2.4-0.7h-2l-2.8-0.7h-2.4l-9.2-2.2
	h-2.8l-2.4-0.7h-2l-2.4-0.7H549l-2-0.7l-2.4-0.8l-12-1.4l-2.4-0.7l-2-0.7h-2l-2.4-0.8h-2l-0.8-0.7h-0.8l0,0 M520.2,392.9l-2.8,13.7
	l-1.6,10.1l-1.2,5l-0.8,5.8l-1.6,5l-0.4,5.8l-1.6,5.1l-0.8,5.2l-0.8,5.6l-1.2,5.2l-0.8,5.6l-1.6,5.2l-0.4,4.8l-0.8,4.4l-1.6,5.2
	l-0.8,4.8l-0.4,5.2l-1.6,4.8l-0.8,6l-1.2,4.8l-0.8,5.2L495,521l-0.8,5.2l-0.4,5.2l-1.6,4.8l-0.8,4.4l-0.8,4.4l-0.4,4.8l-0.8,4.4
	l-1.6,4.4l-0.8,5.2l-0.4,4l-0.8,5.2l-1.6,4.4l-0.8,4.8l-0.4,5.2l-1.6,5.2l-0.8,4.8l-1.2,8 M837.8,392.9l3.6,0.7h3.6l3.6,0.8h4.4h4.4
	l3.6,0.7h4.4l3.6,0.7h3.6h3.6l4,0.7h4.4l4.4,0.7h4.4l4.4,0.8h4h4.4l4.4,0.7h5.2h4l4.4,0.7h4.4l5.2,0.7h4h4.4h5.2l4.4,0.7h4h4.4
	l4.4,0.8h4.4h4.4h4l4.4,0.7h4.4h4.4h4.8h4.4l4.2,0.7l5,0.7l3,0.7l4,2.2l3,1.4l2,1.5l1,0.7l0,0l0,0 M832.2,462.2l0.8-2.4v-1.2V457
	v-1.2v-1.6v-1.6l0.4-1.2v-1.6v-1.2V447v-2l0.8-1.6v-1.6v-1.2v-2.3v-1.5l0.8-1.4v-2.2v-1.4v-1.4l1.6-14.4v-1.5v-2.1v-1.5l0.4-2.1
	v-1.5v-1.4v-2.2l0.8-7.9v-2.9 M1767,398.7l10,2.9v0.7h1h1l1,0.7l0,0h1l1,0.7h1l1,0.7h1l0,0l1,0.8h1l0,0l6,2.1h1h1v0.7l1,0.8v0.7v0.7
	v0.7v0.7 M1759,469.4h1l1-0.8l1-1.6l3-1.2l1-1.6l1-2l2-2.4v-1.2l2-2.4l2-1.2l1-1.6l1-1.2l1-1.6V449l-1-1.2l-1-1.6l-1-0.8l-3-1.2
	l-2-1.6l-1-1.2l-2-2.4l-1-1.4l-2-1.5l-1-1.4l-2-1.5v-1.4v-2.2v-2.1V426v-2.1v-1.5v-2.1v-1.5v-2.1v-1.5l1-2.1l1-1.5l1-1.4V408l1-1.4
	l1-2.2l1-2.1l1-1.5l1-1.4v-0.7l0,0 M1580,408l1,3.6v0.8v0.7l0,0v0.7v0.7l0,0v0.7l2,11.6l0,0v0.7v0.7l0,0v0.7l0,0l0,0l0,0
	 M1022,410.2h1l1,0.7v0.7l2,0.8l1,0.7h1l1-0.7l1-0.8l1-0.7l1-0.7l1-0.7h2h2h1h1l2,0.7h1l3-0.7h1h1h1l1,0.7h2l1,0.7l1,0.7l2,0.8
	l1,0.7l1,0.7l2,0.7h1l2,0.7l1,0.8l1,0.7l1,0.7l1,1.4l1,0.8l1,1.4l1,1.4l1,0.8l1,0.7l2,0.7l1,0.7h1l1,0.7 M613.8,409.5l-1.2,8.6v2.9
	l-0.8,2.2L611,426v2.2l-0.8,2.2v2.8l-0.8,2.2v2.2l-0.4,3v2l-0.8,2.8v2.4v2l1.2,1.6l1.6,1.2l2.8,0.8h2.8l13.2,2.4l2.8,0.4h2l3.2,0.8
	h2l2,0.8h2.4h2.8l2,0.8l19.6,2.8h2 M1796,411.6v0.8l0,0l0,0v0.7l0,0l0,0v0.7l0,0l-1,2.2v0.7l0,0l0,0v0.7l0,0l0,0v0.7v2.9
	 M1259,420.3h1h1h2h2l2-0.7h2h2h2h3h2l2-0.8h2h1h3h2h2h2l2-0.7h3h2h2h2h2l2-0.7h2h3h1h2h2l2-0.7h2h2h2l2-0.7h3h2h1h2l2-0.8h2h2h2
	l5-0.7 M1239,513.8L1239,513.8v-0.4h1v-0.8v-2.4v-2l2-2l1-2.4l2-2l1-1.6l1-2l2-2.4l1-2.8l1-2.8l1-2l1-3.2l-1-2l-1-2l-1-2.4l-1-2
	l-1-1.6v-2v-1.6l1-1.2l2-1.6l2-1.6l2-0.4l3-1.6l3-0.8l2-0.8l3-1.2l2-0.8l1-1.6l2-2V455l2-2.8l1-3.2l1-2.8l1-2.8v-2l-1-3.1l-2-2.2
	l-2-2.1l-2-1.5l-1-2.1l-2-1.5l-1-2.1l-2-2.2l-1-1.4l-1-1.5l-1-0.7l-1-0.7 M1098,508.2l-1-1.6l-1-1.2v-1.6l-1-1.2v-2.4l1-2v-2.4v-2
	l-1-2v-3.2l-1-2l-1-2V483v-2v-2.4l-1-2v-2.4l-1-1.2v-2.4v-1.2l-2-0.8V467l-1-1.2l-1-1.6v-2v-2.4v-1.2v-2.4V455l-1-1.6v-2l-1-1.6
	v-1.2l-2-1.6v-1.6l-1-2l-1-1.6v-2l-1-1.5l-1-2.2l-1-1.4v-2.2v-1.4v-2.2l-1-1.4l-1-0.7V426l0,0l0,0 M1583,428.9l2,12.5v0.4l1,0.8v0.8
	v0.8v0.8v0.4l1,1.6v0.8v3.6v0.8v0.4v0.8v0.8v0.8l1,0.8v0.4v1.6v0.8v0.8l1,4v1.6 M1489,432.5l-6,0.7h-1l-1,0.8h-1h-1h-1h-1l-1,0.7h-1
	h-1h-1l-1,0.7l-8,0.7l-1,0.7h-1h-1h-1l-1,0.8h-1h-2l0,0l-7,1.4h-3 M1382,443.4l5-0.8h1h1h2h1l3-0.8h1h1h2l1-0.4h2h2h1l2-0.8h2h2h2
	l1-0.8h1h2h1h2l2-0.8h1h2h2l1-0.7h2h2h1l2-0.7h1h2l2-0.8h1h2h1l1,0.8l1,0.7v0.7l0,0l0,0 M1446,439l1,6.4l1,0.8 M1448,446.2
	L1448,446.2v0.8v1.6v1.2l1,2.4v2v2v1.6v2v1.6l1,2.8v2.4v2l1,2.8v2.4v2.8v2.8v2l1,3.2v2l1,2v2.4v2v2.8v2.4v2l1,2.4v2.8v2.8l1,2v2.4
	l1,2v2.8v2.4v2.8v2v2.4l1,2.8v2v2.4l1,2v2.4v2l1,2v2.4v2v1.6v2 M1360,447.8l1,2v2.4v2v2v3.2v2v2.8l1,2.8v3.2v2.8l1,2.8v3.6v2.8v2.8
	v3.2l1,2.8v2.8v2l1,2.4v2v2.4v2.8l1,2v2.8v3.2v2.8v2.8v2.8l1,2.8v3.2v2.8l1,2.8v3.6v2.8l1,2.4v2.8v2.8v2l-1,2.4l-1,2v2.8l1,2.4
	l1,2.8v2l1,3.2l1,1.2v1.6v0.8l0,0l0,0 M670.6,461.4L681,463l12,1.2l3.6,0.8l4.4,0.8h3.6l4.4,0.8l3.6,0.4h4.4l3.6,0.8l3.6,0.8h3.6
	l4.4,0.8h3.6l3.6,0.8l3.6,0.4h3.6l2.8,0.8h3.6l3.6,0.8l3.6,0.8h3.6l4.4,0.8h3.6l3.6,0.4h3.6l3.6,0.8h3.6l3.6,0.8h3.6l3.6,0.8h3.6
	l4,0.8h3.6l4.4,0.4h3.6l14.4,1.6 M649.8,612.6l0.8-5.6l0.8-3.2l0.8-3.6v-3.6l0.4-3.6l0.8-3.6l0.8-4v-3.6l0.8-3.6v-3.6l0.8-3.6v-4.4
	l0.4-3.6l0.8-3.6l0.8-3.6l1.6-11.6l0.4-3.6V537l0.8-3.6l0.8-2.8V527l0.8-2.8l0.8-3.6v-3.2l0.4-3.6l0.8-3.6v-3.6l0.8-3.6l0.8-2.8
	v-3.6l0.8-3.6l0.4-3.6V485l0.8-3.6l0.8-3.6l0.8-3.6v-3.6l0.8-3.6l0.4-2.8v-2.8 M830.6,479.4l1.6-16v-1.2 M1594,493.8L1594,493.8
	L1594,493.8V493v-0.8v-0.4V491l-1-0.8v-0.8v-1.2v-0.8v-0.8v-0.8V485v-0.4v-0.8V483l-1-5.2v-0.4l-1-0.8v-0.8V475v-0.8v-0.4V473
	l-1-0.8v-0.8v-0.8v-0.4l0,0l-1-5.2 M1589,465L1589,465v0.8l-1,0.8l-1,1.2v1.6v2.8v2l1,3.6v3.2l-1,2.8v2v2.8v3.2l-1,2.8v3.6l-1,3.6
	v2.8v2.8l-2,2.8l-2,3.2l-2,3.6l-2,2l-2,2l-4,1.6l-2,1.6l-2,0.4l-3,1.6l-2,2l-1,2.4l-1,2.8v2.8v2.4l-1,2.8v2l-2,1.6h-1l-2-0.8h-1
	l-2,0.8l-1,1.2l-1,3.2l-1,2v2.8v2.8v3.2l-1,2l-1,1.6l-1,2l-2,2l-2,1.6l-2,0.8h-2l0,0h-1l0,0 M1748,475l2-2.8l0,0v-0.8l0,0h1v-0.8
	l0,0l0,0l1-0.4l1-0.8l0,0l0,0h1l0,0l0,0h1l0,0l0,0h4l0,0 M1759,469.4L1759,469.4 M1775,526.2l-6,0.8l-2,0.8h-2h-1l-1-0.8l-1-0.8
	v-1.6v-1.2l-1-1.6v-2l-1-1.6l-1-1.2v-1.6v-2l-1-1.6v-1.6l-1-1.2v-2.4v-1.2l-1-1.6v-2l-1-1.6V499v-1.6l-1-1.6v-1.2l-1-0.8v-1.6
	l-1-1.2v-2.4l-1-1.2v-1.6v-1.2l-3-9.6 M1630,499L1630,499L1630,499h1l1-0.8h2l3-0.8l3-0.8l3-0.8h3l2-0.4l2-0.8h3l2-0.8h3l3-0.8
	l2-0.8h2l3-0.4l2-0.8h3l2-0.8l3-0.8l3-0.8h3l3-0.4l3-0.8h3l2-0.8l1-0.8h2l3-0.8l2-0.4h3l2-0.8h3l2-0.8l2-0.8h3l2-0.8l2-0.4l3-0.8h2
	l3-0.8l2-0.8h2l3-0.8l2-0.4h2l3-0.8l2-0.8l2-0.8 M830.6,479.4l6.4,0.8h3.2h2h2.8l2.4,0.8h2h2h2.4l2.8,0.4h2h3.2l4.8,0.8h2.8h2.4h2.8
	l2,0.8h2.4h2h2.4l2.8,0.8h2.8h2l2.4,0.8l0.8,1.2l0.4,2.4v2.8v2.8v2l-0.4,3.2v2.8v2v2.8l-0.8,2.4v2v2.8v2.4v2l-0.8,2.8v6 M305.7,481
	l0.7,0.4l1.5,2.4l2.1,2.8l2.2,4.4l2.9,4.4l2.8,4l2.9,3.6l2.2,4.4l2.9,3.6l2.8,4.4l2.9,4.4l2.9,4.8l3.6,4.4l2.9,4.4l2.9,5.2l2.8,4
	l3.6,5.2l2.9,4.4l2.9,4.4l3.6,4.8l3.6,5.2l2.9,4.8l3.6,6l3.6,4.8l3.6,5.2l2.9,5.2l3.6,4.8l3.6,6l3.6,4.8l3.6,5.2l3.6,4.8l2.9,6
	l3.6,4.8l3.6,5.2l2.9,4.4l3.6,4.8l2.8,4.4l2.9,5.2l3.6,4.8l3.6,5.2l14.4,21.6l0.8,1.6 M1690,505.4l-1-0.8l-1-1.6l-1-1.2l-1-2.4l-1-2
	l-2-1.6l-1-1.2h-2l-2-0.8h-1l-2-0.8h-2l-1,0.8l-3,0.8l-1,0.8l-1,1.2l-2,1.6l-1,1.2l-2,1.6l-2,0.8h-1h-2l-3-0.8l-1,0.8l-2,0.8l-1,1.2
	l-1,1.6l-2,1.2l-1,0.8l-2,0.8l-1,1.6l-2,1.2l-1,2.4l-1,1.2l-2,2.4l-1,1.2l-2,0.8l-1-0.8V517l-1-2.4v-2.8l-2-12.8 M1630,499l-6,0.4
	h-1l-1,0.8h-1h-1h-1l-1,0.8h-1h-2l0,0l-1,0.8h-1h-2l-8,1.2h-1l-2,0.8l0,0h-2h-1l0,0l-1-0.8l-1-0.4v-0.8V501l-1-7.2 M1563,605.4
	L1563,605.4L1563,605.4v0.8l1,1.2l2,2.4l2,2.8l3,2l4,0.8l4-0.8l4-0.4l4-1.6l4-0.8l4-0.8l3-2l2-2l2-2.4l3-0.8l3-1.2l4-1.6l3-2l2-2.4
	l1-2.8l1-2.8v-3.6l2-4.4l1-4.4l2-4l2-5.2l2-4.4l2-3.6l1-4.4l2-3.6l2-2l4-0.8l2,0.8l4-1.6l2-2.8l2-3.6l1-3.6l2-3.6l2-2l3-2.8l4-3.2
	l2-4l2-3.2l2-3.6v-3.6l2-3.6v-2.8l3-1.2l3,0.4l2,1.6l2,0.8v0.8l0,0 M1239,513.8l-2-1.2h-1l0,0l0,0h-1v-0.8l0,0l0,0l-6-6.4v-0.8
	 M1229,504.6L1229,504.6h-1h-2h-2h-3h-3l-3,0.8h-3h-3h-2l-3,0.8h-3h-3h-3l-3,0.4h-3h-3h-3h-3l-3,0.8h-4h-2h-3h-4h-3l-3,0.8h-3h-2h-3
	h-3h-3h-3h-3h-2h-3h-3h-3h-3h-3h-3h-4h-3h-2h-3h-3h-3h-2 M1712,517.4h-1l-1-0.4h-1h-1v-0.8h-1l-1-0.8l-1-0.8l0,0v-0.8h-1h-1l0,0h-1
	h-1l0,0l-1-0.4h-1l-1-0.8v-0.8h-1V511v-0.8l1-0.4V509v-0.8v-0.8h-1v-0.8v-0.4h-1l-1-0.8l0,0l-1-0.8h-1l0,0h-1h-1h-1v0.8l0,0l0,0l0,0
	 M1679,509.8l7,3.6h1l0,0l0,0l0,0l0,0v-0.8h1l1-6l1-1.2 M1113,533.4l-2-0.8v-0.8h-1l-1-0.4v-0.8v-0.8V529v-0.8v-0.4V527l0,0l-1-0.8
	l-1-2h-1v-0.8l-1-0.8v-0.8h-1V521l-1-0.4l0,0v-0.8l-1-0.8v-0.8v-0.8l-1-4l-1-0.8v-0.8V511l-1-0.8v-0.4l0,0l-1-0.8v-0.8 M1324,655.8
	L1324,655.8h-1V655l-2-0.8l-2-0.4l-2-0.8l-2-2.4l-2-3.6l-1-3.6v-3.6l-1-2.8l-1-2.8l-1-2.8l-1-2.8l-2-3.2l-2-2.8l-3-2l-2-1.6l-3-1.2
	l-3-1.6l-4-2l-2-2.4l-4-2.8l-2-2.8l-1-2.8v-3.6l1-4.4v-3.6l2-3.6v-4.4l1-2.8l-1-2.8l-2-1.6l-4-1.6l-4-0.4l-3-0.8l-2-2.4l-3-2.8
	l-1-4.4l-2-3.6l-3-3.6l-4-2.8l-3-2.8l-3-3.6l-3-2.8l-3-3.6l-2-3.6l-1-3.6l-2-3.6l-1-3.6v-3.6v-2.8l1-3.2v-2l1-1.6l0,0l0,0
	 M1712,517.4l3-1.2l0,0l0,0l0,0h1l0,0l0,0h1l2,1.2l0,0l0,0v0.8l0,0l0,0v0.8l0,0l-3,3.6v0.8 M1716,523.4l-1-1.6l0,0V521l0,0l0,0l0,0
	l0,0l0,0l-2-2.8l-1-0.8 M1714,530.6l1-2.8l0,0l0,0V527l0,0l0,0l0,0v-0.8l1-2l0,0l0,0v-0.8l0,0l0,0l0,0l0,0l0,0 M1784,524.2l-9,2l0,0
	 M892.6,527l4.4,0.8h3.6h4.8l4.4,0.4h3.6h2.8l3.6,0.8h3.6h4.4h3.6l3.6,0.8h3.6h3.6l3.6,0.8h4.4h2.8h3.6h3.6l4.4,0.8h3.6h3.6h3.6h3.6
	l4.4,0.4h4.4h4h3.6h3.6h4l3,0.8h4h4h4h3h4h4h5l4,0.8h5h5h5h4h5h3h5h3h4h4h3h3h2h1l0,0 M892.6,527l-0.8,9.2v2.8v2.4l-0.8,2.8v1.6v2v2
	v3.2v2.8l-0.4,2v2.8v2.4v2.8l-0.8,2v2.4v2v2.4v2.8l-0.8,2v2.8v2.4v2v2.4v2l-0.8,2v3.2v2v2v2.4l-0.8,2v2.4v2.8v2.8l-0.4,2v3.2v2.8
	v2.8v2l-0.8,3.2v2v2.8v2.4v2l-0.8,2 M1113,533.4L1113,533.4v0.8l1,0.8l2,1.2l3,1.6l2,0.8l3,0.4l1,1.6v2l-1,3.2l-2,2.8l-1,2.8v2.8
	l2,2.8l2,3.2l1,2l2,2l1,2.4l3,1.2l2,1.6l1,2l1,2.4v2v2.8l1,3.2v2.8v2.8v2.8v3.6v3.6v3.6v3.6v3.6v3.6v2.8v3.2v3.6v2.8v3.6v3.6v2.8
	v2.8v2.8v3.2v2.8v2v3.6v2.8v3.6v3.2v1.2v0.8l0,0l0,0 M1090,533.4h5h1l0,0h1l0,0h1h1l0,0h11l0,0h1l0,0h1l0,0h1l0,0l0,0 M1782,543.4
	l-11,3.6h-1l0,0h-1v0.8l0,0l0,0v0.8l0,0 M1461,548.6L1461,548.6l1,0.8l1,0.4h2l2,0.8h2h2l2,0.8l2,0.8l2,1.2l1,1.6l1,2l1,1.6l1,1.6
	l2,0.4l2,0.8h2l2,0.8h3l2,0.8l2,1.2l1,0.8h2l2-0.8l2-0.4h2h2l3,0.4h2h2l2-0.4l1-0.8l2-1.6l1-1.2l2-0.8l1-0.8l2,0.8v1.2l2,1.6l1,1.6
	l1,1.2l2,0.8l2,1.6l1,0.4l1,1.6l1,0.8l0,0l0,0 M1459,550.6l2-2l0,0 M1459,550.6L1459,550.6L1459,550.6v0.8v1.6v2.8v2v2.4v2v2l-3,1.6
	l-3,1.6l-3,0.4l-4,0.8l-2,1.6l-2,1.2l-1,2.4v2l-1,2.8l-2,2.4l-1,2l-2,2.8l-2,2.4l-2,2.8l-2,2.8l-1,2.8l-1,2.4l-2,2l-2,0.8h-2l-3-0.8
	l-2-1.2l-2-0.8h-2l-2,2l-1,2.4l-2,2.8l-2,2h-2l-3-0.8h-3l-2,0.8l-2,2.4l-2,1.2l-3,0.8h-2l-4-0.8h-3h-3l-3,0.8l-4,0.8h-3l-2,0.8
	l-2,1.2l-1,0.8l-2,0.8v0.8l0,0l0,0 M1536,570.2l1,3.6v0.8v1.2v1.6v1.2v0.8v1.6v0.8l1,1.2v0.8l1,0.8v0.8l1,0.4l1,0.8v1.6l1,0.8v0.4
	l1,1.6v0.8l2,0.8l1,0.4v1.6l1,0.8l1,0.8l1,0.4v1.6l1,0.8l1,0.8v0.4l1,1.6h1l1,0.8l1,0.8l2,0.4v0.8h1l1,0.8h1h1h1l0,0h1 M1371,571
	L1371,571L1371,571v0.4l1,1.6v1.6v1.2l-1,1.6v1.2v0.8l-1,1.6l-1,0.8v1.2l-1,0.8l-1,1.6v1.2l-1,1.6v1.2v1.6l-1,1.6l-1,0.4l-1,1.6v0.8
	l-1,0.8l-1,0.4l-1,0.8h-1v0.8v1.6l1,0.4v0.8v0.8v1.6l-1,1.2v0.8l-1,1.6v1.2v1.6v1.2v1.6v0.8l-1,0.8v0.4v0.8l1,1.6h1v0.8 M1563,605.4
	l-6,6.4l-1,1.6l-1,1.2l-2,1.6l-1,1.6l-1,0.4l-2,1.6l-1,0.8l-2,1.2l-1,0.8l-1,0.8l-1,0.8l-1,1.2l-1,0.8v1.6l-1,0.8l-1,1.2v1.6l-1,0.8
	l-1,1.2l-1,1.6l-1,1.2v0.8l-2,0.8l-1,1.6l-1,0.4l-1,0.8l-2,1.6v1.2l-2,0.8l-1,1.6l-1,0.8l-2,0.4l-1,1.6l-3,0.8l-1,0.8l-2,0.4l-2,1.6
	v0.8l-2,0.8 M479.4,605.4l6.4,1.6l17.2,2.8l4.4,0.8l3.6,0.4l4.4,0.8l4,0.8l4.4,0.8l3.6,0.8l4.4,0.4l4.4,0.8l4.4,0.8l4,0.8l8,1.2
	l4.4,0.8l4.4,0.8l4.4,0.8l3.6,0.8l3.6,0.4l4,0.8h3.6l3.6,0.8l3.6,0.8l4.4,0.8l3.6,0.4l4.4,0.8l4.4,0.8l4.4,0.8l4,0.8h3.6l4.4,0.4
	l4.4,0.8l3.6,0.8l18,2 M477.8,611.8l1.6-5.6v-0.8 M1579,644.2L1579,644.2h1h3l4-0.8l6-0.4l4-0.8h5l4-0.8l4-0.8l3-0.8h5l5-0.4l4-0.8
	l4-0.8l4-0.8h4l3-0.8l5-0.4l3-0.8l3-0.8l4-0.8l2-0.8h4l4-0.4l3-0.8l4-0.8l3-0.8l4-0.8l4-0.4l5-0.8l5-1.6l4-0.8l5-0.4l5-0.8l4-1.6
	l6-0.8l4-1.2l6-0.8l4-0.8l4-0.8l2-0.4l3-0.8l4-0.8l3-0.8l4-0.8l4-0.4l4-0.8l4-0.8l3-1.6h3l2-0.4h2l0,0 M442.6,686.2h0.8l0.4-1.6
	l0.8-1.6l0.8-1.2l0.8-2.4v-2.8v-2.8v-2v-3.2v-2v-2.8v-2.4v-2.8l0.8-2v-2.8l0.4-2.4v-2.8l0.8-2v-3.2v-2l1.6-1.6l1.2-1.2h2.4h2
	l2.4,0.8l2,0.4l1.6,1.6l1.2,1.6l1.6,1.2l1.2,0.8h2.4l1.2-0.8l1.6-2l1.6-1.6l0.4-2l0.8-2.8l0.8-2.4v-2.8l1.6-7.2l2-11.6 M647,632.6
	l2.8-18.4v-1.6 M1359,617.8l-1,1.2l-1,0.8l-1,1.6l-1,2v1.6v1.2l1,2.4l1,0.4l-1,1.6l-1,0.8l-1,0.8l-2,0.4l-1,1.6l-2,0.8l-1,0.8
	l-1,0.4l-2,0.8v1.6v2v1.6v1.2v0.8l1,1.6v2l-1,0.8v1.6h-2h-1l-2-0.8l-2-0.8l-2-0.8l-1-1.2l-2-0.8h-2l-1-0.8h-1l-2,0.8l-1,1.2l-1,0.8
	l-1,2.4l-1,1.2v1.6v1.2l1,0.8v0.8l0,0 M852.2,654.2h-0.8l0,0H851h-2.4h-2.8l-5.2-0.4h-4.8l-5.2-0.8h-4.8l-5.2-0.8h-5.2l-4.8-0.8
	l-5.2-0.8h-4.8l-4.4-0.4H791l-4.8-0.8l-4.4-0.8h-3.6l-4.4-0.8h-3.6l-4.4-0.8h-4.4l-4-0.4l-5.2-0.8H747l-4.8-0.8l-5.2-0.8l-4.8-0.8
	H727l-4.4-0.4l-4.4-0.8l-4.8-0.8l-4.4-0.8h-4.4l-3.6-0.8l-4.4-0.4h-4l-5.2-0.8l-5.2-0.8l-4.8-0.8l-5.2-0.8l-4.4-0.4L663,635h-4.4
	l-4.4-0.8l-7.2-1.6 M647,632.6l-2.8,21.6l-0.8,6.8l-0.8,5.6l-0.8,5.6l-0.4,6l-0.8,5.6l-1.6,6l-0.8,5.6l-0.4,5.6l-0.8,5.2l-0.8,5.6
	l-0.8,6l-0.8,4.8l-0.4,6l-0.8,5.6l-0.8,5.2l-0.8,5.6l-0.8,6l-0.4,5.6l-1.6,5.6l-0.8,6l-0.8,5.6l-0.4,6.4l-0.8,6l-0.8,6.4l-0.8,5.6
	l-1.2,6l-0.8,6.4l-0.8,5.2l-0.8,5.6l-0.8,5.2l-0.4,4.8l-0.8,6l-0.8,5.6l-0.8,5.6l-0.8,6.8l-2,10.8l-0.8,9.2 M885.4,639.8l-0.8,17.6
	 M1511,653.8l2-0.8l0,0h2h2l1-0.8h3h1h1l5-0.8l3-0.8h1h1h2l2-0.4h2h1l2-0.8h1h2l1-0.8h2h2l1-0.8h2h2l2-0.8h2h1l2-0.4h2l1-0.8h2
	l2-0.8h2l1-0.8h3l1-0.8h1h1h1v0.8l0,0l0,0l0,0 M1572,659.4L1572,659.4L1572,659.4v-0.8l0,0l0,0l1-0.8l0,0l1-0.4l3-3.2v-0.4h1V653
	l0,0v-0.8l0,0v-0.8l1-5.6v-1.6 M1511,653.8h-1l0,0l-3,0.4h-2l-4,0.8l-3,0.8h-3l-3,0.8h-4l-3,0.8h-5l-3,0.4h-3h-3h-3l-5,0.8h-3
	l-4,0.8h-3l-4,0.8h-4l-4,0.8h-6l-4,0.4h-4h-4l-4,0.8h-4l-4,0.8l-4,0.8h-4l-4,0.8h-4l-4,0.4h-4l-3,0.8h-5l-4,0.8h-4h-3l-4,0.8l-2,1.2
	l-1,2.4l-2,2l-4,0.8l-4,0.8l-4,0.8h-4h-3l-3,0.4h-2h-3h-3l-4,0.8h-4l-3,0.8h-1h-1l0,0h-1 M884.6,657.4l-30-2.4l-2.4-0.8
	 M852.2,654.2l-1.2,19.6l-0.8,2 M1315,677.4l2-3.6V673l1-0.8l0,0l1-0.4v0.4l0,0l1,0.8h1h1l0,0l1-0.8l0,0v-0.4V671v-0.8v-0.8v-0.8
	v-0.4v-0.8v-0.8l1-0.8V665l1-0.4v-0.8V663v-0.8v-0.8v-1.2v-0.8v-0.8v-0.8v-0.4v-0.8h-1v-0.8l0,0 M1073,663.8h-1h-1h-2h-3h-4l-4-0.8
	h-4h-5h-3h-4h-4h-3h-5h-4h-5h-4l-4-0.8h-4h-4h-4h-3.2h-3.6h-4.4l-3.6-0.8h-4.4h-3.6h-3.6H971l-3.6-0.4h-3.6h-4.4h-3.6l-3.6-0.8h-4
	h-4.4h-4.4l-4.4-0.8h-4.4H927h-3.6l-4-0.8h-3.6h-4.4H907l-3.6-0.8H899h-4.4l-3.6-0.4h-2.8h-2h-1.6l0,0l0,0l0,0 M1497,725.8v-1.6
	v-1.6v-2l1-2.8l1-2.4l2-1.2l2-1.6l1-1.2l1-2.4l1-1.2l1-2.4v-1.2l2-1.6l1-1.6l3-1.2l1-1.6h2l3-0.8l2-0.4l2-0.8l2-1.6l3-1.2l1-2.4
	l2-0.8V689l2-1.6l2-0.8l2-1.2l2-0.8l1-1.6l1-2v-1.6l2-2l1-1.6l2-2l3-0.8h1h1h2l2-0.8l2-1.2l1-1.6l2-1.2l2-0.8l2-0.8h3l1-0.8l1-1.2
	l2-1.6v-1.6v-1.2l1-0.8 M1137,684.6v-5.2V679v-0.8v-0.8l0,0v-0.8v-0.8l0,0v-0.4v-0.8v-0.8l0,0V673v-0.8v-0.4l0,0V663 M1137,663h-8
	h-1h-1h-2h-1h-2h-1h-2l-1,0.8h-2h-2h-1h-2h-1h-1h-2h-1h-2h-1h-2h-1h-2h-2h-1h-2h-1h-1h-2h-1h-2h-2h-6h-5 M850.2,675.8L850.2,675.8
	L850.2,675.8v0.8l-0.8,1.6l-0.8,2.8v5.2l-0.8,6.4l-0.4,6.4l-0.8,6.4v6l-0.8,6.4v5.6l-0.8,7.2l-0.8,8l-0.4,8.8l-0.8,8.4l-0.8,8v5.6
	l-0.8,6l-0.8,5.6v6.4l-0.4,6.8l-0.8,6.4l-0.8,7.2l-0.8,8l-0.8,8.4l-0.4,9.6l-0.8,9.2l-0.8,8.8l-1.6,7.6l-2,5.2l-4.4,2.8l-6.4,0.8
	h-7.2l-7.2-0.8h-5.6l-6.8-0.8l-6.4-0.4l-6.4-0.8l-7.2-0.8l-5.6-0.8h-6.8l-7.2-0.8l-7.2-0.4l-7.6-1.6l-7.2-0.8l-8-0.8h-6.4l-6,0.8
	l-4.4,1.6l-0.4,2.8v1.6l0.4,1.2l0,0l0,0 M955.4,769h-0.8v-0.8l-0.8-0.8l-1.6-1.6L951,763l-0.8-3.6v-3.6v-4.4v-3.6v-3.6l0.8-4v-4.4
	v-4.4V727l0.8-4.4v-4V715v-4.4l0.4-3.6v-3.6V699v-5.2v-4l-0.4-3.6l-2.4-3.2l-3.6-0.4l-4.4-0.8h-4.8l-4.4-0.8H927h-4l-4.4-0.8h-5.2
	H909l-4.8-0.8h-4.4h-4.4l-4.8-0.4h-4.4l-5.2-0.8h-4.4l-4.8-0.8h-4.4h-5.2l-12-1.6 M1315,677.4L1315,677.4L1315,677.4h-1l0,0h-1h-1
	v0.8l0,0v0.8v0.4v0.8v2.4v0.4v0.8v0.8v0.8v0.8l0,0v0.4v0.8v0.8l-1,0.8v0.8h-1v0.4l-1,0.8v0.8v0.8v0.8l0,0l-3,6.4 M1137,684.6h6h4h3
	h4h3h4h4l3-0.8h4h3h4h3h4h3h3l4-0.8h3h4h4h4l4-0.4h4h3h4h3l4-0.8h4h3h3h4l3-0.8h3h2h4l4-0.8h4h4h3l4-0.8h4l4,0.8l3,0.8l2,2l1,3.2
	l-1,2.8v2l-1,0.8l0,0l0,0 M1144,808.6v-3.2v-2v-2.8V797v-2.8V791v-2.8v-2v-2.8v-3.2v-2.8l1-2.8v-2.8V769v-3.2V763v-3.6v-2.8v-2.8
	V751v-3.2V745v-2v-2.8V737v-2v-2v-2.4l-1-2v-2.8l-1-2.4v-2.8v-2.8l-1-2.8v-3.2l-1-2.8v-2.8l-1-2.8l-1-2.8v-3.2v-2.8v-2.8l-1-2
	l-1-5.2 M420.9,782.6h0.8l0.7-0.8h2.1l1.5-0.8l2.1-0.8l1.5-1.2l0.7-2.4v-2l-0.7-2l-1.5-2.4l-1.4-1.2l-0.7-1.6l-0.7-2V763l0.7-2.8
	l0.7-2l0.7-3.2l1.5-2l2.1-1.6l2.2-2l1.4-2.8l1.6-2.8l0.4-3.2v-2.8l0.8-3.6l0.8-2l1.6-2.4l1.2-2l2.4-1.6l2-1.2l2-0.8l2.4-2l1.2-2.4
	l0.8-2l-0.8-2.4l-1.2-2.8l-1.6-2l-0.8-2.4l-0.4-2.8l-0.8-2l-0.8-2.4l-0.8-2.8l-0.8-2.8l-0.4-2l-0.8-3.2v-2v-1.6l0,0v-0.4
	 M1290,691.8l-4,7.2l-1,0.8l0,0l-1,0.8l1,0.4l0,0h1h1l0,0h2l0,0l1-0.4h6h1l0,0h1h1v-0.8h1h1h5 M1306,699.8h1v0.8l1,1.2v0.8v0.8
	l-1,0.8v0.4l-1,0.8l-1,1.6v0.8l-1,1.2l-1,0.8l-2,0.8v0.8l-1,1.2v1.6v1.2l1,1.6v1.6l-1,0.4l-1,0.8l-1,0.8l-1,0.8v0.8v1.2v1.6v0.8h-1
	h-1l0,0v0.4v1.6v1.6l-1,0.4v1.6v1.6l1,1.2l1,1.6v0.8l-1,1.2l-1,0.8v0.8l-1,1.2l-1,0.8l-1,1.6l-1,0.8h-1v0.4l0,0 M1706,743L1706,743
	l-1-0.8l-1-0.8l-1-1.2l-2-1.6l-4-1.6l-2-2l-2-1.6l-3-2l-2-1.6l-3-2l-2-1.6l-2-1.2l-2-2.4l-2-1.2l-2-1.6l-3-1.2l-2-1.6l-2-1.6l-1-0.4
	l-2-1.6l-3-1.6l-2-1.2h-3h-2h-2h-2l-2,0.8h-2l-4,0.4h-2l-2,0.8h-3l-3,0.8l-3,0.8h-2h-3h-2l-2-0.8l-1-2l-1-2.4l-2-1.2l-2-1.6h-1
	l-2-0.8l-1-0.8v-0.4l-1-0.8v-0.8l0,0 M1610,702.6h-5l-1,0.8h-1h-2h-2l-2,0.8h-1h-2h-1l-2,0.4h-2h-2h-2l-1,0.8h-2h-2h-1l-2,0.8h-2h-1
	h-3l-1,0.8h-1h-2h-2l-1,0.8h-2l-1,0.4l-2,0.8l-1,1.6l-1,0.8l-2,0.4l-2,1.6l-2,0.8l-1,0.8l-1,0.4l-2,0.8h-1l-3,0.8l-1,1.6h-1l-1,0.4
	l0,0h-1l0,0l0,0 M1539,719v1.6v0.8v0.8v0.4l0,0l-1,0.8v0.8l-1,0.8l-2,2.8h-1v0.8l-1,0.8v0.4v0.8v0.8l0,0v0.8v0.8v0.4v0.8h1l1,0.8
	l0,0l5,2.8l1,0.8l0,0l1,0.8h1v0.8l0,0l1,0.4l0,0 M1497,725.8l4-0.8h1h1h1l1-0.8h1h1l0,0h2h1v-0.8h1h2l0,0h2l6-1.2h1h1h1h1l1-0.8h1h1
	h1l1-0.8l7-0.8l2-0.8 M1453,730.6L1453,730.6h2h1h1l1-0.8h1h1h1h1h1l1-0.4h1h2l0,0h2l2-0.8l0,0h2h1l0,0l2-0.8h1l0,0h2h1l1-0.8h1h1h2
	l0,0h2v-0.8h2l0,0h2l6-0.4 M1453,730.6L1453,730.6v0.8v0.8v2l2,2.8l1,3.6v3.2l1,2.8l1,2.8l1,2.8l1,2.8l1,3.6l1,3.6l1,4.4l1,4.4
	l1,3.6l2,3.6v3.6l1,3.6l1,2.8l1,3.6l1,3.6l1,3.6l1,3.6l1,3.6l1,2.8l1,3.2l1,2.8v2.8l2,2.8v2.8l2,3.2l2,2.8l2,2.8l1,3.6l1,2.8l1,2.8
	l1,3.2v2.8l-2,2v2.8l-1,3.2v2.8l-1,2.8v2.8l1,2.8l1,2.4v2.8l2,3.6v4.4v3.6v4.4l1,2.8l1,3.6l1,2l1,1.6l1,0.8v0.4l0,0 M1363,738.6h1h2
	h1l2-0.8h2h2l3-0.8h2h2h2l2-0.4h3h2h2h2l2-0.8h2h2h1h2l3-0.8h2h2h2l2-0.8h2h2l3-0.8h3h2h1l2-0.4h2h2h2l2-0.8h2h3l2-0.8h2h2h2l2-0.8
	h2 M1369,911.4L1369,911.4v-0.8v-0.8l-1-2l-1-3.6v-4.4l-1-4.8v-3.6V887l-1-3.6l-1-4.4v-3.6l-1-4.4v-3.6v-3.6l1-3.6v-3.6V853v-3.6
	V845v-3.6v-3.6v-3.6v-4l1-3.6V823v-3.6V815v-3.6v-3.6v-4.4v-3.6v-4.4l1-4.8v-4.4v-3.6V779v-2.8V773v-3.6v-2.8V763v-4.4v-4v-4.4v-4.4
	l-1-2.8l-1-2.4l-1-1.2l0,0v-0.8 M1289,744.2l14-0.4l2-0.8h2h1h2h2h1h2l2-0.8h1h1h3h1h2l2-0.8h1h2h2h1h2l2-0.8h1h2h1h2l2-0.4h1h2h2h2
	h1l2-0.8h1h2h2h1h1l1-0.8 M1544,740.6L1544,740.6L1544,740.6h1h1l3,0.8l1,1.6l2,1.2l2,3.2l3,2.8l1,2l2,2.8l2,3.2l2,2l3,1.6l2,2
	l2,1.6l4,2l2,2l2,2.4l3,2l2,1.6l2,1.2l2,2.4l2,2l2,2.4l2,2.8l2,2.8l3,2l3,1.6l3,2l2,2.4l2,2.8l2,2.8l1,2.8l1,3.2l2,2.8l2,2l2,2.4
	l2,2.8l2,2l2,2.8l1,3.2l2,2.8l2,2l2,1.6l2,0.8l2,0.4l0,0 M1289,744.2L1289,744.2L1289,744.2v0.8l1,0.8v1.6l-1,1.2v1.6l-2,1.2l-1,1.6
	l-1,2l-1,1.6l-1,2l-1,1.6l-1,1.6v2v2.8l-2,2.4v2l-2,1.6l-1,1.2l-2,2.4l-1,2l-2,1.6l-1,2l-1,1.6v1.2v1.6v0.8l-1,1.2l-2,1.6l-1,2v2.4
	v2.8v2l-1,2.4l-1,1.2l-1,1.6l-1,0.8v2v1.6v2l1,2.8l1,2.4l1,2.8l1,2v2.8v3.2v1.2l-1,2.4l-1,0.4v0.8l0,0l0,0l0,0 M1144,808.6
	L1144,808.6L1144,808.6l-1-0.8l-4-0.8l-3-0.8l-4-2l-3-2.4l-4-2l-4-2h-4h-6h-4h-6l-4,0.4l-4,1.6l-4,0.8l-4,1.2l-3,0.8l-4,0.8l-3-0.8
	l-3-1.2l-3-1.6l-3-0.8l-3-0.8l-3-0.4h-3l-2,0.4l-2,2.4h-3l-3-0.8l-2-0.8h-2h-3l-2-1.2l-3-0.8l-3-0.8h-3h-3h-3l-2-1.6l-2-2l-3-2.8
	l-3-1.6l-3-1.2l-4,0.4h-3l-4-0.4l-4-1.6l-5.2-1.6l-5.2-1.2l-4-1.6l-3.2-2l-2-2.8l-2.8-2.4L969,773h-3.6l-3.6-0.4L959,771l-2.4-1.6
	l-1.2-0.4l0,0l0,0 M1161,835v-8v-0.4V825v-0.8l-1-0.8v-1.2v-0.8v-0.8V815v-0.8v-0.8v-0.8l-1-0.4l-1-0.8h-1v-0.8h-1h-1h-1h-1l-1,0.8
	h-1h-1l-1,0.8h-1l-1-0.8l0,0l-1-0.8l-1-0.8l-1-1.2 M1263,831.4L1263,831.4v0.8v0.8v1.2v1.6v2l1,1.6l1,2v1.6l1,0.8v1.2v1.6v1.6l1,0.4
	l2,1.6v1.6l1,1.2l1,2.4l1,1.2l1,2.4v1.2l-1,1.6l-1,1.2l-2,1.6v0.8v1.2v1.6v0.8l1,1.2v0.8l-1,1.6l-1,2l-2,1.6l-1,1.2l-2,1.6l-1,1.6
	l-1,1.2v1.6l-1,1.2l-1,1.6l-1,1.6v2l-1,1.6l-1,2l-1,1.6l-1,2v2v2.4v2v2.4l-1,1.2v1.6l-1,1.2l0,0v0.8 M1263,831.4L1263,831.4
	L1263,831.4h-1h-1l-2,0.8h-2h-2h-2h-2h-2h-2h-2l-5,0.8h-3h-2h-2h-4h-2h-2h-3l-5,0.8h-2h-4h-2h-2h-3h-3h-2h-2h-2h-2l-3,0.4h-2h-2h-3
	h-2h-2h-1h-3h-2h-2h-3h-1h-2h-2h-2v0.8 M1171,977.8L1171,977.8V977l-1-1.6v-2V971l1-2.8l2-2v-2.8l1-3.6l1-3.6l-1-3.6V949v-3.6v-3.2
	l1-2.8l2-3.6l2-3.6v-3.6l1-2.8l1-3.6v-2.8l-1-3.6l-1-2.4l-1-2l-2-2l-1-3.2l-1-2.8l-1-2.8l-2-2.8V895l-1-2.4l-1-2.8l-1-2.8l-2-2.8
	l-2-3.2l-1-3.6l-1-2.8l-1-3.6v-3.6v-3.6v-3.6v-3.6v-2.8v-3.6v-3.6V843v-3.6v-2v-1.6V835l0,0 M1607,891.4l6,2h1l0,0h1l0,0v0.8h1l0,0
	l7-0.8h2 M1494,899L1494,899v0.8l1,0.8l1,2l1,2.4l1,2l1,2.4l2,0.4l2,0.8l3-0.8h3h4l3-0.4h4h3l4-0.8h4h2h3l4-0.8h3h3l2-0.8h3h2h3h2
	l2-0.8h2h4h3l3-0.4h3h4l3-0.8h4h3l4-0.8l2,0.8l2,1.2l2,2.4l2,1.2l2,0.8l1-1.2l1-3.2v-2.8v-2.8v-2.8V895l1-2.4l1-0.8v-0.4l0,0
	 M1494,899l-9,0.8l-3,0.8h-2h-2l-2,0.8h-2h-3l-2,0.8h-3l-3,0.4h-3l-3,0.8h-2h-3l-3,0.8h-2l-3,0.8h-3h-2l-3,0.8h-3h-2l-2,0.4h-2h-3
	h-2l-3,0.8h-3h-3l-3,0.8h-2l-3,0.8h-2l-2,0.8l-2,1.2v2.4v2l1,2l2,1.6l1,1.6l2,0.4l1,0.8l1,0.8l0,0 M1252,910.6L1252,910.6
	L1252,910.6v0.8v0.8v2v1.6l1,1.2v0.8l2,0.8h3l3-0.8h2h2h4h2h2l3-0.8h3h3h3l3-0.4h2h2h2h3l2-0.8h4h3h3l3-0.8h3h2l2,0.8v1.2v2.4v2.8
	l-1,2.8v2.8v2.4l1,2l1,2.4l2,2l1,2l2,3.2l1,2l1,2l2,1.6l1,1.6l0,0v0.4 M1371,938.2l-1-13.2v-0.8v-0.4V923v-0.8v-0.8l-1-0.8v-0.4V913
	v-1.6 M1407,922.2l-1,5.2l0,0v0.4l0,0v0.8v0.8l0,0l1,0.8v2l0,0v0.8l0,0v0.8v0.8l0,0v0.4l-2,4.4"/>
<g id="labels">
	<text transform="matrix(1 0 0 1 968 922.3)" class="st2 st3">TX</text>
	<text transform="matrix(1 0 0 1 1717 342)" class="st2 st3">NY</text>
	<text transform="matrix(1 0 0 1 516.6 740.1)" class="st2 st3">AZ</text>
	<text transform="matrix(1 0 0 1 264.6 580.1)" class="st2 st3">CA</text>
	<text transform="matrix(1 0 0 1 386.6 492.1)" class="st2 st3">NV</text>
	<text transform="matrix(1 0 0 1 556.6 536.1)" class="st2 st3">UT</text>
	<text transform="matrix(1 0 0 1 744.6 570.1)" class="st2 st3">CO</text>
	<text transform="matrix(1 0 0 1 710.6 756.1)" class="st2 st3">NM</text>
	<text transform="matrix(1 0 0 1 322.6 1000)" class="st2 st3">AK</text>
	<text transform="matrix(1 0 0 1 662.6 1126)" class="st2 st3">HI</text>
	<text transform="matrix(1 0 0 1 1027 740)" class="st2 st3">OK</text>
	<text transform="matrix(1 0 0 1 989 606)" class="st2 st3">KS</text>
	<text transform="matrix(1 0 0 1 955 474)" class="st2 st3">NE</text>
	<text transform="matrix(1 0 0 1 935 346)" class="st2 st3">SD</text>
	<text transform="matrix(1 0 0 1 699 386)" class="st2 st3">WY</text>
	<text transform="matrix(1 0 0 1 509 326)" class="st2 st3">ID</text>
	<text transform="matrix(1 0 0 1 315 276)" class="st2 st3">OR</text>
	<text transform="matrix(1 0 0 1 355 138)" class="st2 st3">WA</text>
	<text transform="matrix(1 0 0 1 669 210)" class="st2 st3">MT</text>
	<text transform="matrix(1 0 0 1 937 218)" class="st2 st3">ND</text>
	<text transform="matrix(1 0 0 1 1111 272)" class="st2 st3">MN</text>
	<text transform="matrix(1 0 0 1 1263 338)" class="st2 st3">WI</text>
	<text transform="matrix(1 0 0 1 1155 452)" class="st2 st3">IA</text>
	<text transform="matrix(1 0 0 1 1297 528)" class="st2 st3">IL</text>
	<text transform="matrix(1 0 0 1 1181 610)" class="st2 st3">MO</text>
	<text transform="matrix(1 0 0 1 1191 766)" class="st2 st3">AR</text>
	<text transform="matrix(1 0 0 1 1199 924)" class="st2 st3">LA</text>
	<text transform="matrix(1 0 0 1 1295 846)" class="st2 st3">MS</text>
	<text transform="matrix(1 0 0 1 1403 836)" class="st2 st3">AL</text>
	<text transform="matrix(1 0 0 1 1519 828)" class="st2 st3">GA</text>
	<text transform="matrix(1 0 0 1 1621 1020)" class="st2 st3">FL</text>
	<text transform="matrix(1 0 0 1 1611 768)" class="st2 st3">SC</text>
	<text transform="matrix(1 0 0 1 1663 684)" class="st2 st3">NC</text>
	<text transform="matrix(1 0 0 1 1405 708)" class="st2 st3">TN</text>
	<text transform="matrix(1 0 0 1 1447 624)" class="st2 st3">KY</text>
	<text transform="matrix(1 0 0 1 1395 524)" class="st2 st3">IN</text>
	<text transform="matrix(1 0 0 1 1417 376)" class="st2 st3">MI</text>
	<text transform="matrix(1 0 0 1 1497 500)" class="st2 st3">OH</text>
	<text transform="matrix(1 0 0 1 1569 568)" class="st2 st3">WV</text>
	<text transform="matrix(1 0 0 1 1655 594)" class="st2 st3">VA</text>
	<text transform="matrix(1 0 0 1 1661 446)" class="st2 st3">PA</text>
	<text transform="matrix(1 0 0 1 1871 198)" class="st2 st3">ME</text>
	<text transform="matrix(1 0 0 1 1719 190)" class="st2 st3">VT</text>
	<text transform="matrix(1 0 0 1 1780 173)" class="st2 st3">NH</text>
	<text transform="matrix(1 0 0 1 1902 313)" class="st2 st3">MA</text>
	<text transform="matrix(1 0 0 1 1909 400)" class="st2 st3">RI</text>
	<text transform="matrix(1 0 0 1 1863 427)" class="st2 st3">CT</text>
	<text transform="matrix(1 0 0 1 1820 468)" class="st2 st3">NJ</text>
	<text transform="matrix(1 0 0 1 1809 519)" class="st2 st3">DE</text>
	<text transform="matrix(1 0 0 1 1806 573)" class="st2 st3">MD</text>
</g>
<path id="lines" class="st4" d="M1803,184.5l36,90.2 M1751,202.1l42,42.6 M1893,309.3l-41,19.4 M1899,375.9l-41-21.3 M1865,394.3
	l-39-24.9 M1797,555.8l-83-54.6 M1800,510.3l-29,5.4 M1786,453.2l25,3.5"/>
</svg>
